<?xml version="1.0" standalone="no"?>
<!DOCTYPE svg PUBLIC "-//W3C//DTD SVG 1.1//EN" "http://www.w3.org/Graphics/SVG/1.1/DTD/svg11.dtd" >
<!--
2013-9-30: Created.
-->
<svg>
<metadata>
Created by iconfont
</metadata>
<defs>

<font id="xu-feather_light" horiz-adv-x="1024" >
  <font-face
    font-family="xu-feather_light"
    font-weight="500"
    font-stretch="normal"
    units-per-em="1024"
    ascent="896"
    descent="-128"
  />
    <missing-glyph />
    
    <glyph glyph-name="activity" unicode="&#59164;" d="M938.666667 405.333333h-170.666667c-8.533333 0-17.066667-4.266667-21.333333-12.8L640 68.266667 405.333333 776.533333c-4.266667 17.066667-34.133333 17.066667-38.4 0l-123.733333-371.2H85.333333c-12.8 0-21.333333-8.533333-21.333333-21.333333s8.533333-21.333333 21.333333-21.333333h170.666667c8.533333 0 17.066667 4.266667 21.333333 12.8L384 699.733333l234.666667-708.266666c4.266667-8.533333 12.8-12.8 21.333333-12.8s17.066667 4.266667 21.333333 12.8l123.733334 371.2H938.666667c12.8 0 21.333333 8.533333 21.333333 21.333333s-8.533333 21.333333-21.333333 21.333333z"  horiz-adv-x="1024" />

    
    <glyph glyph-name="alert-circle" unicode="&#59165;" d="M512 832C264.533333 832 64 631.466667 64 384S264.533333-64 512-64 960 136.533333 960 384 759.466667 832 512 832z m0-853.333333c-221.866667 0-405.333333 183.466667-405.333333 405.333333S290.133333 789.333333 512 789.333333s405.333333-183.466667 405.333333-405.333333-183.466667-405.333333-405.333333-405.333333zM512 576c-12.8 0-21.333333-8.533333-21.333333-21.333333v-170.666667c0-12.8 8.533333-21.333333 21.333333-21.333333s21.333333 8.533333 21.333333 21.333333V554.666667c0 12.8-8.533333 21.333333-21.333333 21.333333zM524.8 230.4c-4.266667 4.266667-17.066667 8.533333-21.333333 4.266667-4.266667 0-4.266667-4.266667-8.533334-4.266667s-4.266667-4.266667-4.266666-8.533333v-17.066667c0-4.266667 4.266667-4.266667 4.266666-8.533333 4.266667-4.266667 8.533333-8.533333 17.066667-8.533334 4.266667 0 12.8 0 12.8 8.533334 4.266667 0 4.266667 4.266667 4.266667 8.533333V213.333333v8.533334s0 4.266667-4.266667 8.533333z"  horiz-adv-x="1024" />

    
    <glyph glyph-name="airplay" unicode="&#59166;" d="M853.333333 789.333333H170.666667C110.933333 789.333333 64 742.4 64 682.666667v-426.666667c0-59.733333 46.933333-106.666667 106.666667-106.666667h42.666666c12.8 0 21.333333 8.533333 21.333334 21.333334s-8.533333 21.333333-21.333334 21.333333H170.666667c-34.133333 0-64 29.866667-64 64V682.666667c0 34.133333 29.866667 64 64 64h682.666666c34.133333 0 64-29.866667 64-64v-426.666667c0-34.133333-29.866667-64-64-64h-42.666666c-12.8 0-21.333333-8.533333-21.333334-21.333333s8.533333-21.333333 21.333334-21.333334h42.666666c59.733333 0 106.666667 46.933333 106.666667 106.666667V682.666667c0 59.733333-46.933333 106.666667-106.666667 106.666666zM529.066667 268.8c-8.533333 8.533333-25.6 8.533333-34.133334 0l-213.333333-256c-4.266667-4.266667-8.533333-17.066667-4.266667-21.333333 4.266667-8.533333 12.8-12.8 21.333334-12.8h426.666666c8.533333 0 17.066667 4.266667 21.333334 12.8 4.266667 8.533333 4.266667 17.066667-4.266667 21.333333l-213.333333 256z m-183.466667-247.466667l166.4 200.533334 166.4-200.533334H345.6z"  horiz-adv-x="1024" />

    
    <glyph glyph-name="alert-octagon" unicode="&#59167;" d="M955.733333 576l-251.733333 251.733333c-4.266667 4.266667-8.533333 4.266667-17.066667 4.266667H337.066667c-4.266667 0-12.8-4.266667-17.066667-4.266667L68.266667 576c0-4.266667-4.266667-12.8-4.266667-17.066667v-349.866666c0-4.266667 4.266667-12.8 4.266667-17.066667l251.733333-251.733333c4.266667-4.266667 8.533333-4.266667 17.066667-4.266667h349.866666c4.266667 0 12.8 4.266667 17.066667 4.266667l251.733333 251.733333c4.266667 4.266667 4.266667 8.533333 4.266667 17.066667V558.933333c0 4.266667-4.266667 12.8-4.266667 17.066667z m-38.4-358.4l-238.933333-238.933333H345.6l-238.933333 238.933333V550.4l238.933333 238.933333h332.8l238.933333-238.933333v-332.8zM512 576c-12.8 0-21.333333-8.533333-21.333333-21.333333v-170.666667c0-12.8 8.533333-21.333333 21.333333-21.333333s21.333333 8.533333 21.333333 21.333333V554.666667c0 12.8-8.533333 21.333333-21.333333 21.333333zM524.8 230.4c-4.266667 4.266667-17.066667 8.533333-21.333333 4.266667-4.266667 0-4.266667-4.266667-8.533334-4.266667s-4.266667-4.266667-4.266666-8.533333v-17.066667c0-4.266667 4.266667-4.266667 4.266666-8.533333 4.266667-4.266667 8.533333-8.533333 17.066667-8.533334 4.266667 0 12.8 0 12.8 8.533334 4.266667 0 4.266667 4.266667 4.266667 8.533333V213.333333v8.533334s0 4.266667-4.266667 8.533333z"  horiz-adv-x="1024" />

    
    <glyph glyph-name="align-center" unicode="&#59168;" d="M256 490.666667c-12.8 0-21.333333-8.533333-21.333333-21.333334s8.533333-21.333333 21.333333-21.333333h512c12.8 0 21.333333 8.533333 21.333333 21.333333s-8.533333 21.333333-21.333333 21.333334H256zM128 618.666667h768c12.8 0 21.333333 8.533333 21.333333 21.333333s-8.533333 21.333333-21.333333 21.333333H128c-12.8 0-21.333333-8.533333-21.333333-21.333333s8.533333-21.333333 21.333333-21.333333zM896 320H128c-12.8 0-21.333333-8.533333-21.333333-21.333333s8.533333-21.333333 21.333333-21.333334h768c12.8 0 21.333333 8.533333 21.333333 21.333334s-8.533333 21.333333-21.333333 21.333333zM768 149.333333H256c-12.8 0-21.333333-8.533333-21.333333-21.333333s8.533333-21.333333 21.333333-21.333333h512c12.8 0 21.333333 8.533333 21.333333 21.333333s-8.533333 21.333333-21.333333 21.333333z"  horiz-adv-x="1024" />

    
    <glyph glyph-name="align-justify" unicode="&#59169;" d="M896 490.666667H128c-12.8 0-21.333333-8.533333-21.333333-21.333334s8.533333-21.333333 21.333333-21.333333h768c12.8 0 21.333333 8.533333 21.333333 21.333333s-8.533333 21.333333-21.333333 21.333334zM128 618.666667h768c12.8 0 21.333333 8.533333 21.333333 21.333333s-8.533333 21.333333-21.333333 21.333333H128c-12.8 0-21.333333-8.533333-21.333333-21.333333s8.533333-21.333333 21.333333-21.333333zM896 320H128c-12.8 0-21.333333-8.533333-21.333333-21.333333s8.533333-21.333333 21.333333-21.333334h768c12.8 0 21.333333 8.533333 21.333333 21.333334s-8.533333 21.333333-21.333333 21.333333zM896 149.333333H128c-12.8 0-21.333333-8.533333-21.333333-21.333333s8.533333-21.333333 21.333333-21.333333h768c12.8 0 21.333333 8.533333 21.333333 21.333333s-8.533333 21.333333-21.333333 21.333333z"  horiz-adv-x="1024" />

    
    <glyph glyph-name="alert-triangle" unicode="&#59170;" d="M960 140.8L601.6 742.4c-29.866667 46.933333-93.866667 64-145.066667 34.133333-12.8-8.533333-25.6-21.333333-34.133333-34.133333L59.733333 140.8c-17.066667-25.6-21.333333-55.466667-12.8-81.066667 8.533333-25.6 25.6-51.2 46.933334-64 17.066667-12.8 34.133333-17.066667 55.466666-17.066666h721.066667c59.733333 0 106.666667 46.933333 106.666667 106.666666 0 17.066667-4.266667 38.4-17.066667 55.466667z m-89.6-119.466667H149.333333c-12.8 0-21.333333 4.266667-34.133333 8.533334-12.8 8.533333-25.6 21.333333-29.866667 38.4 0 17.066667 0 34.133333 8.533334 46.933333l362.666666 601.6c8.533333 8.533333 12.8 17.066667 21.333334 21.333333 29.866667 17.066667 68.266667 4.266667 85.333333-21.333333l358.4-601.6c4.266667-8.533333 8.533333-21.333333 8.533333-29.866667 4.266667-34.133333-25.6-64-59.733333-64zM512 533.333333c-12.8 0-21.333333-8.533333-21.333333-21.333333v-170.666667c0-12.8 8.533333-21.333333 21.333333-21.333333s21.333333 8.533333 21.333333 21.333333V512c0 12.8-8.533333 21.333333-21.333333 21.333333zM524.8 187.733333c-8.533333 8.533333-21.333333 8.533333-29.866667 0-4.266667-4.266667-4.266667-8.533333-4.266666-17.066666s0-12.8 4.266666-12.8c0 0 4.266667-4.266667 8.533334-4.266667h8.533333c4.266667 0 12.8 0 12.8 8.533333 4.266667 4.266667 8.533333 8.533333 8.533333 12.8v8.533334c-4.266667-4.266667-4.266667 0-8.533333 4.266666z"  horiz-adv-x="1024" />

    
    <glyph glyph-name="align-left" unicode="&#59171;" d="M128 448h597.333333c12.8 0 21.333333 8.533333 21.333334 21.333333s-8.533333 21.333333-21.333334 21.333334H128c-12.8 0-21.333333-8.533333-21.333333-21.333334s8.533333-21.333333 21.333333-21.333333zM128 618.666667h768c12.8 0 21.333333 8.533333 21.333333 21.333333s-8.533333 21.333333-21.333333 21.333333H128c-12.8 0-21.333333-8.533333-21.333333-21.333333s8.533333-21.333333 21.333333-21.333333zM896 320H128c-12.8 0-21.333333-8.533333-21.333333-21.333333s8.533333-21.333333 21.333333-21.333334h768c12.8 0 21.333333 8.533333 21.333333 21.333334s-8.533333 21.333333-21.333333 21.333333zM725.333333 149.333333H128c-12.8 0-21.333333-8.533333-21.333333-21.333333s8.533333-21.333333 21.333333-21.333333h597.333333c12.8 0 21.333333 8.533333 21.333334 21.333333s-8.533333 21.333333-21.333334 21.333333z"  horiz-adv-x="1024" />

    
    <glyph glyph-name="align-right" unicode="&#59172;" d="M896 490.666667H298.666667c-12.8 0-21.333333-8.533333-21.333334-21.333334s8.533333-21.333333 21.333334-21.333333h597.333333c12.8 0 21.333333 8.533333 21.333333 21.333333s-8.533333 21.333333-21.333333 21.333334zM128 618.666667h768c12.8 0 21.333333 8.533333 21.333333 21.333333s-8.533333 21.333333-21.333333 21.333333H128c-12.8 0-21.333333-8.533333-21.333333-21.333333s8.533333-21.333333 21.333333-21.333333zM896 320H128c-12.8 0-21.333333-8.533333-21.333333-21.333333s8.533333-21.333333 21.333333-21.333334h768c12.8 0 21.333333 8.533333 21.333333 21.333334s-8.533333 21.333333-21.333333 21.333333zM896 149.333333H298.666667c-12.8 0-21.333333-8.533333-21.333334-21.333333s8.533333-21.333333 21.333334-21.333333h597.333333c12.8 0 21.333333 8.533333 21.333333 21.333333s-8.533333 21.333333-21.333333 21.333333z"  horiz-adv-x="1024" />

    
    <glyph glyph-name="anchor" unicode="&#59173;" d="M938.666667 405.333333h-128c-12.8 0-21.333333-8.533333-21.333334-21.333333s8.533333-21.333333 21.333334-21.333333h106.666666c-12.8-204.8-174.933333-371.2-384-384v554.666666c72.533333 8.533333 128 72.533333 128 145.066667 0 81.066667-68.266667 149.333333-149.333333 149.333333S362.666667 763.733333 362.666667 682.666667c0-76.8 55.466667-136.533333 128-145.066667v-554.666667c-204.8 12.8-371.2 174.933333-384 384H213.333333c12.8 0 21.333333 8.533333 21.333334 21.333334s-8.533333 17.066667-21.333334 17.066666H85.333333c-12.8 0-21.333333-8.533333-21.333333-21.333333 0-247.466667 200.533333-448 448-448S960 136.533333 960 384c0 12.8-8.533333 21.333333-21.333333 21.333333zM405.333333 682.666667c0 59.733333 46.933333 106.666667 106.666667 106.666666s106.666667-46.933333 106.666667-106.666666-46.933333-106.666667-106.666667-106.666667S405.333333 622.933333 405.333333 682.666667z"  horiz-adv-x="1024" />

    
    <glyph glyph-name="aperture" unicode="&#59174;" d="M925.866667 554.666667c0 4.266667-4.266667 12.8-8.533334 12.8C849.066667 725.333333 691.2 832 512 832 264.533333 832 64 631.466667 64 384c0-59.733333 12.8-119.466667 34.133333-170.666667 0-4.266667 4.266667-12.8 8.533334-12.8 72.533333-153.6 226.133333-260.266667 405.333333-260.266666 247.466667 0 448 200.533333 448 448 0 55.466667-12.8 115.2-34.133333 166.4z m-55.466667 21.333333h-418.133333l119.466666 209.066667c128-21.333333 238.933333-98.133333 298.666667-209.066667z m-273.066667-341.333333h-170.666666L341.333333 384l85.333334 149.333333h170.666666l85.333334-149.333333-85.333334-149.333333z m-85.333333 554.666666h12.8L315.733333 426.666667 196.266667 635.733333C268.8 729.6 384 789.333333 512 789.333333zM166.4 597.333333l209.066667-362.666666H136.533333c-17.066667 46.933333-29.866667 98.133333-29.866666 149.333333 0 76.8 21.333333 149.333333 59.733333 213.333333z m-12.8-405.333333h418.133333l-119.466666-209.066667c-128 21.333333-238.933333 98.133333-298.666667 209.066667z m358.4-213.333333h-12.8l209.066667 362.666666 119.466666-209.066666c-72.533333-93.866667-187.733333-153.6-315.733333-153.6z m345.6 192l-209.066667 362.666666h243.2c17.066667-46.933333 29.866667-98.133333 29.866667-149.333333-4.266667-76.8-25.6-149.333333-64-213.333333z"  horiz-adv-x="1024" />

    
    <glyph glyph-name="archive" unicode="&#59175;" d="M981.333333 789.333333H42.666667c-12.8 0-21.333333-8.533333-21.333334-21.333333v-213.333333c0-12.8 8.533333-21.333333 21.333334-21.333334h64V0c0-12.8 8.533333-21.333333 21.333333-21.333333h768c12.8 0 21.333333 8.533333 21.333333 21.333333V533.333333H981.333333c12.8 0 21.333333 8.533333 21.333334 21.333334V768c0 12.8-8.533333 21.333333-21.333334 21.333333z m-106.666666-768h-725.333334v512h725.333334v-512z m85.333333 554.666667h-896v170.666667h896v-170.666667zM426.666667 362.666667h170.666666c12.8 0 21.333333 8.533333 21.333334 21.333333s-8.533333 21.333333-21.333334 21.333333h-170.666666c-12.8 0-21.333333-8.533333-21.333334-21.333333s8.533333-21.333333 21.333334-21.333333z"  horiz-adv-x="1024" />

    
    <glyph glyph-name="arrow-down-right" unicode="&#59176;" d="M746.666667 597.333333c0 12.8-8.533333 21.333333-21.333334 21.333334s-21.333333-8.533333-21.333333-21.333334v-375.466666L315.733333 614.4c-8.533333 8.533333-21.333333 8.533333-29.866666 0s-8.533333-21.333333 0-29.866667l388.266666-388.266666H298.666667c-12.8 0-21.333333-8.533333-21.333334-21.333334s8.533333-21.333333 21.333334-21.333333h435.2c4.266667 4.266667 8.533333 4.266667 12.8 12.8V597.333333z"  horiz-adv-x="1024" />

    
    <glyph glyph-name="arrow-down" unicode="&#59177;" d="M827.733333 401.066667c-8.533333 8.533333-21.333333 8.533333-29.866666 0l-260.266667-260.266667V682.666667c0 12.8-8.533333 21.333333-21.333333 21.333333s-25.6-8.533333-25.6-21.333333v-546.133334l-260.266667 260.266667c-8.533333 8.533333-21.333333 8.533333-29.866667 0s-8.533333-21.333333 0-29.866667l298.666667-298.666666s4.266667-4.266667 8.533333-4.266667h17.066667c4.266667 0 4.266667 4.266667 8.533333 4.266667l298.666667 298.666666c0 8.533333 0 25.6-4.266667 34.133334z"  horiz-adv-x="1024" />

    
    <glyph glyph-name="arrow-left" unicode="&#59178;" d="M810.666667 405.333333H264.533333l260.266667 260.266667c8.533333 8.533333 8.533333 21.333333 0 29.866667s-21.333333 8.533333-29.866667 0l-298.666666-298.666667s-4.266667-4.266667-4.266667-8.533333c-4.266667-4.266667-4.266667-12.8 0-17.066667 0-4.266667 4.266667-4.266667 4.266667-8.533333l298.666666-298.666667c4.266667-4.266667 8.533333-4.266667 17.066667-4.266667s12.8 0 17.066667 4.266667c8.533333 8.533333 8.533333 21.333333 0 29.866667l-260.266667 260.266666H810.666667c12.8 0 21.333333 8.533333 21.333333 21.333334s-8.533333 29.866667-21.333333 29.866666z"  horiz-adv-x="1024" />

    
    <glyph glyph-name="arrow-left-circle" unicode="&#59179;" d="M512 832C264.533333 832 64 631.466667 64 384S264.533333-64 512-64 960 136.533333 960 384 759.466667 832 512 832z m0-853.333333c-221.866667 0-405.333333 183.466667-405.333333 405.333333S290.133333 789.333333 512 789.333333s405.333333-183.466667 405.333333-405.333333-183.466667-405.333333-405.333333-405.333333zM682.666667 405.333333H392.533333l132.266667 132.266667c8.533333 8.533333 8.533333 21.333333 0 29.866667s-21.333333 8.533333-29.866667 0l-170.666666-170.666667s-4.266667-4.266667-4.266667-8.533333c-4.266667-4.266667-4.266667-12.8 0-17.066667 0-4.266667 4.266667-4.266667 4.266667-8.533333l170.666666-170.666667c4.266667-4.266667 8.533333-4.266667 17.066667-4.266667s12.8 0 17.066667 4.266667c8.533333 8.533333 8.533333 21.333333 0 29.866667l-132.266667 132.266666H682.666667c12.8 0 21.333333 8.533333 21.333333 21.333334s-8.533333 29.866667-21.333333 29.866666z"  horiz-adv-x="1024" />

    
    <glyph glyph-name="arrow-up-circle" unicode="&#59180;" d="M512 832C264.533333 832 64 631.466667 64 384S264.533333-64 512-64 960 136.533333 960 384 759.466667 832 512 832z m0-853.333333c-221.866667 0-405.333333 183.466667-405.333333 405.333333S290.133333 789.333333 512 789.333333s405.333333-183.466667 405.333333-405.333333-183.466667-405.333333-405.333333-405.333333zM529.066667 571.733333s-4.266667 4.266667-8.533334 4.266667c-4.266667 4.266667-12.8 4.266667-17.066666 0-4.266667 0-4.266667-4.266667-8.533334-4.266667l-170.666666-170.666666c-8.533333-8.533333-8.533333-21.333333 0-29.866667s21.333333-8.533333 29.866666 0l132.266667 132.266667V213.333333c0-12.8 8.533333-21.333333 21.333333-21.333333s21.333333 8.533333 21.333334 21.333333V503.466667l132.266666-132.266667c4.266667-4.266667 8.533333-4.266667 17.066667-4.266667s12.8 0 17.066667 4.266667c8.533333 8.533333 8.533333 21.333333 0 29.866667l-166.4 170.666666z"  horiz-adv-x="1024" />

    
    <glyph glyph-name="arrow-up-right" unicode="&#59181;" d="M746.666667 605.866667c-4.266667 4.266667-4.266667 8.533333-12.8 12.8H298.666667c-12.8 0-21.333333-8.533333-21.333334-21.333334s8.533333-21.333333 21.333334-21.333333h375.466666l-388.266666-388.266667c-8.533333-8.533333-8.533333-21.333333 0-29.866666 4.266667-4.266667 8.533333-4.266667 17.066666-4.266667s12.8 0 17.066667 4.266667l388.266667 388.266666V170.666667c0-12.8 8.533333-21.333333 21.333333-21.333334s21.333333 8.533333 21.333333 21.333334V597.333333c-4.266667 4.266667-4.266667 4.266667-4.266666 8.533334z"  horiz-adv-x="1024" />

    
    <glyph glyph-name="arrow-up-left" unicode="&#59182;" d="M349.866667 576H725.333333c12.8 0 21.333333 8.533333 21.333334 21.333333s-8.533333 21.333333-21.333334 21.333334H290.133333l-12.8-12.8V170.666667c0-12.8 8.533333-21.333333 21.333334-21.333334s21.333333 8.533333 21.333333 21.333334V546.133333l388.266667-388.266666c4.266667-4.266667 8.533333-4.266667 17.066666-4.266667s12.8 0 17.066667 4.266667c8.533333 8.533333 8.533333 21.333333 0 29.866666L349.866667 576z"  horiz-adv-x="1024" />

    
    <glyph glyph-name="bar-chart-" unicode="&#59183;" d="M768 490.666667c-12.8 0-21.333333-8.533333-21.333333-21.333334v-426.666666c0-12.8 8.533333-21.333333 21.333333-21.333334s21.333333 8.533333 21.333333 21.333334V469.333333c0 12.8-8.533333 21.333333-21.333333 21.333334zM512 746.666667c-12.8 0-21.333333-8.533333-21.333333-21.333334v-682.666666c0-12.8 8.533333-21.333333 21.333333-21.333334s21.333333 8.533333 21.333333 21.333334V725.333333c0 12.8-8.533333 21.333333-21.333333 21.333334zM256 320c-12.8 0-21.333333-8.533333-21.333333-21.333333v-256c0-12.8 8.533333-21.333333 21.333333-21.333334s21.333333 8.533333 21.333333 21.333334v256c0 12.8-8.533333 21.333333-21.333333 21.333333z"  horiz-adv-x="1024" />

    
    <glyph glyph-name="award" unicode="&#59184;" d="M832 554.666667c0 174.933333-145.066667 320-320 320S192 729.6 192 554.666667c0-106.666667 55.466667-204.8 136.533333-260.266667l-51.2-375.466667c0-8.533333 4.266667-17.066667 8.533334-21.333333s17.066667-4.266667 21.333333 0l200.533333 119.466667 200.533334-119.466667c4.266667 0 8.533333-4.266667 12.8-4.266667 4.266667 0 8.533333 0 12.8 4.266667 8.533333 4.266667 8.533333 12.8 8.533333 21.333333l-51.2 375.466667c85.333333 55.466667 140.8 153.6 140.8 260.266667z m-597.333333 0c0 153.6 123.733333 277.333333 277.333333 277.333333s277.333333-123.733333 277.333333-277.333333-123.733333-277.333333-277.333333-277.333334S234.666667 401.066667 234.666667 554.666667z m465.066666-597.333334l-174.933333 106.666667c-8.533333 4.266667-17.066667 4.266667-21.333333 0L324.266667-42.666667l42.666666 315.733334c42.666667-21.333333 93.866667-34.133333 145.066667-34.133334 51.2 0 102.4 12.8 145.066667 34.133334l42.666666-315.733334z"  horiz-adv-x="1024" />

    
    <glyph glyph-name="at-sign" unicode="&#59185;" d="M512 832C264.533333 832 64 631.466667 64 384S264.533333-64 512-64c98.133333 0 196.266667 34.133333 273.066667 93.866667 8.533333 8.533333 12.8 21.333333 4.266666 29.866666-8.533333 8.533333-21.333333 12.8-29.866666 4.266667-72.533333-55.466667-157.866667-85.333333-247.466667-85.333333-221.866667 0-405.333333 183.466667-405.333333 405.333333S290.133333 789.333333 512 789.333333s405.333333-183.466667 405.333333-405.333333v-42.666667c0-59.733333-46.933333-106.666667-106.666666-106.666666s-106.666667 46.933333-106.666667 106.666666V554.666667c0 12.8-8.533333 21.333333-21.333333 21.333333s-21.333333-8.533333-21.333334-21.333333v-51.2c-34.133333 42.666667-89.6 72.533333-149.333333 72.533333-106.666667 0-192-85.333333-192-192s85.333333-192 192-192c68.266667 0 128 34.133333 162.133333 89.6 21.333333-51.2 76.8-89.6 136.533334-89.6 85.333333 0 149.333333 64 149.333333 149.333333v42.666667c0 247.466667-200.533333 448-448 448z m0-597.333333c-81.066667 0-149.333333 68.266667-149.333333 149.333333s68.266667 149.333333 149.333333 149.333333 149.333333-68.266667 149.333333-149.333333-68.266667-149.333333-149.333333-149.333333z"  horiz-adv-x="1024" />

    
    <glyph glyph-name="arrow-down-left" unicode="&#59186;" d="M725.333333 192H349.866667l388.266666 388.266667c8.533333 8.533333 8.533333 21.333333 0 29.866666s-21.333333 8.533333-29.866666 0l-388.266667-388.266666V597.333333c0 12.8-8.533333 21.333333-21.333333 21.333334s-21.333333-8.533333-21.333334-21.333334v-435.2c4.266667-4.266667 4.266667-8.533333 12.8-12.8H725.333333c12.8 0 21.333333 8.533333 21.333334 21.333334s-8.533333 21.333333-21.333334 21.333333z"  horiz-adv-x="1024" />

    
    <glyph glyph-name="battery-charging" unicode="&#59187;" d="M128 618.666667h136.533333c12.8 0 21.333333 8.533333 21.333334 21.333333s-8.533333 21.333333-21.333334 21.333333H128C68.266667 661.333333 21.333333 614.4 21.333333 554.666667v-341.333334c0-59.733333 46.933333-106.666667 106.666667-106.666666h85.333333c12.8 0 21.333333 8.533333 21.333334 21.333333s-8.533333 21.333333-21.333334 21.333333H128c-34.133333 0-64 29.866667-64 64V554.666667c0 34.133333 29.866667 64 64 64zM725.333333 661.333333h-85.333333c-12.8 0-21.333333-8.533333-21.333333-21.333333s8.533333-21.333333 21.333333-21.333333h85.333333c34.133333 0 64-29.866667 64-64v-341.333334c0-34.133333-29.866667-64-64-64h-136.533333c-12.8 0-21.333333-8.533333-21.333333-21.333333s8.533333-21.333333 21.333333-21.333333H725.333333c59.733333 0 106.666667 46.933333 106.666667 106.666666V554.666667c0 59.733333-46.933333 106.666667-106.666667 106.666666zM981.333333 448c-12.8 0-21.333333-8.533333-21.333333-21.333333v-85.333334c0-12.8 8.533333-21.333333 21.333333-21.333333s21.333333 8.533333 21.333334 21.333333v85.333334c0 12.8-8.533333 21.333333-21.333334 21.333333zM571.733333 392.533333c-4.266667 8.533333-12.8 12.8-17.066666 12.8H337.066667l149.333333 221.866667c8.533333 8.533333 4.266667 21.333333-4.266667 29.866667-8.533333 8.533333-21.333333 4.266667-29.866666-4.266667l-170.666667-256c-4.266667-8.533333-4.266667-17.066667 0-21.333333s12.8-12.8 17.066667-12.8h217.6l-149.333334-221.866667c-8.533333-8.533333-4.266667-21.333333 4.266667-29.866667 4.266667-4.266667 8.533333-4.266667 12.8-4.266666 8.533333 0 12.8 4.266667 17.066667 8.533333l170.666666 256c4.266667 8.533333 4.266667 17.066667 0 21.333333z"  horiz-adv-x="1024" />

    
    <glyph glyph-name="bar-chart" unicode="&#59188;" d="M512 490.666667c-12.8 0-21.333333-8.533333-21.333333-21.333334v-426.666666c0-12.8 8.533333-21.333333 21.333333-21.333334s21.333333 8.533333 21.333333 21.333334V469.333333c0 12.8-8.533333 21.333333-21.333333 21.333334zM768 746.666667c-12.8 0-21.333333-8.533333-21.333333-21.333334v-682.666666c0-12.8 8.533333-21.333333 21.333333-21.333334s21.333333 8.533333 21.333333 21.333334V725.333333c0 12.8-8.533333 21.333333-21.333333 21.333334zM256 234.666667c-12.8 0-21.333333-8.533333-21.333333-21.333334v-170.666666c0-12.8 8.533333-21.333333 21.333333-21.333334s21.333333 8.533333 21.333333 21.333334v170.666666c0 12.8-8.533333 21.333333-21.333333 21.333334z"  horiz-adv-x="1024" />

    
    <glyph glyph-name="bell-off" unicode="&#59189;" d="M597.333333 17.066667c-8.533333 4.266667-21.333333 4.266667-29.866666-8.533334-8.533333-17.066667-25.6-25.6-42.666667-29.866666-17.066667-4.266667-29.866667 0-42.666667 8.533333-8.533333 4.266667-21.333333 12.8-21.333333 17.066667-4.266667 12.8-17.066667 17.066667-25.6 12.8-12.8-4.266667-17.066667-17.066667-12.8-25.6 8.533333-21.333333 21.333333-29.866667 38.4-42.666667 17.066667-12.8 34.133333-17.066667 55.466667-17.066667 8.533333 0 12.8 0 21.333333 4.266667 29.866667 8.533333 51.2 25.6 68.266667 51.2 4.266667 12.8 0 25.6-8.533334 29.866667zM384 750.933333c29.866667 25.6 76.8 38.4 128 38.4 128 0 234.666667-106.666667 234.666667-234.666666 0-76.8 8.533333-149.333333 25.6-217.6 4.266667-8.533333 12.8-17.066667 21.333333-17.066667h4.266667c12.8 4.266667 17.066667 12.8 17.066666 25.6-17.066667 68.266667-25.6 136.533333-25.6 209.066667 0 153.6-123.733333 277.333333-277.333333 277.333333-42.666667 0-102.4-8.533333-153.6-46.933333-8.533333-8.533333-12.8-21.333333-4.266667-29.866667 8.533333-8.533333 21.333333-12.8 29.866667-4.266667zM998.4-68.266667l-256 256L285.866667 644.266667 59.733333 870.4C51.2 878.933333 38.4 878.933333 29.866667 870.4s-8.533333-21.333333 0-29.866667l217.6-217.6c-8.533333-21.333333-12.8-42.666667-12.8-68.266666 0-281.6-119.466667-366.933333-119.466667-366.933334-8.533333-4.266667-12.8-12.8-8.533333-25.6s12.8-17.066667 21.333333-17.066666h588.8l251.733333-251.733334c4.266667-4.266667 8.533333-4.266667 17.066667-4.266666s12.8 0 17.066667 4.266666c0 12.8 0 29.866667-4.266667 38.4zM179.2 192c42.666667 51.2 98.133333 162.133333 98.133333 362.666667 0 12.8 0 21.333333 4.266667 29.866666l392.533333-392.533333H179.2z"  horiz-adv-x="1024" />

    
    <glyph glyph-name="arrow-right-circle" unicode="&#59190;" d="M512 832C264.533333 832 64 631.466667 64 384S264.533333-64 512-64 960 136.533333 960 384 759.466667 832 512 832z m0-853.333333c-221.866667 0-405.333333 183.466667-405.333333 405.333333S290.133333 789.333333 512 789.333333s405.333333-183.466667 405.333333-405.333333-183.466667-405.333333-405.333333-405.333333zM704 392.533333c0 4.266667-4.266667 4.266667-4.266667 8.533334l-170.666666 170.666666c-8.533333 8.533333-21.333333 8.533333-29.866667 0s-8.533333-21.333333 0-29.866666l132.266667-132.266667H341.333333c-12.8 0-21.333333-8.533333-21.333333-21.333333s8.533333-21.333333 21.333333-21.333334h290.133334l-132.266667-132.266666c-8.533333-8.533333-8.533333-21.333333 0-29.866667 4.266667-4.266667 8.533333-4.266667 17.066667-4.266667s12.8 0 17.066666 4.266667l170.666667 170.666667s4.266667 4.266667 4.266667 8.533333c-4.266667-4.266667-4.266667 4.266667-4.266667 8.533333z"  horiz-adv-x="1024" />

    
    <glyph glyph-name="bluetooth" unicode="&#59191;" d="M541.866667 384l217.6 217.6c8.533333 8.533333 8.533333 21.333333 0 29.866667L524.8 866.133333c-4.266667 4.266667-17.066667 8.533333-21.333333 4.266667-8.533333-4.266667-12.8-12.8-12.8-21.333333v-418.133334L294.4 635.733333c-8.533333 4.266667-25.6 4.266667-34.133333 0s-4.266667-25.6 0-34.133333l217.6-217.6-217.6-217.6c-8.533333-8.533333-8.533333-21.333333 0-29.866667s21.333333-8.533333 29.866666 0l196.266667 196.266667V-85.333333c0-8.533333 4.266667-17.066667 12.8-21.333334h8.533333c4.266667 0 12.8 4.266667 17.066667 4.266667l234.666667 234.666667c8.533333 8.533333 8.533333 21.333333 0 29.866666L541.866667 384z m-8.533334 418.133333l183.466667-183.466666-183.466667-183.466667V802.133333z m0-836.266666v366.933333l183.466667-183.466667-183.466667-183.466666z"  horiz-adv-x="1024" />

    
    <glyph glyph-name="arrow-up" unicode="&#59192;" d="M827.733333 401.066667l-298.666666 298.666666s-4.266667 4.266667-8.533334 4.266667c-4.266667 4.266667-12.8 4.266667-17.066666 0-4.266667 0-4.266667-4.266667-8.533334-4.266667l-298.666666-298.666666c-8.533333-8.533333-8.533333-21.333333 0-29.866667s21.333333-8.533333 29.866666 0l260.266667 260.266667V85.333333c0-12.8 8.533333-21.333333 21.333333-21.333333s21.333333 8.533333 21.333334 21.333333V631.466667l260.266666-260.266667c4.266667-4.266667 8.533333-4.266667 17.066667-4.266667s12.8 0 17.066667 4.266667c8.533333 4.266667 8.533333 21.333333 4.266666 29.866667z"  horiz-adv-x="1024" />

    
    <glyph glyph-name="bold" unicode="&#59193;" d="M704 392.533333c51.2 34.133333 85.333333 93.866667 85.333333 162.133334 0 106.666667-85.333333 192-192 192H256c-12.8 0-21.333333-8.533333-21.333333-21.333334v-682.666666c0-12.8 8.533333-21.333333 21.333333-21.333334h384c106.666667 0 192 85.333333 192 192 0 85.333333-55.466667 153.6-128 179.2z m-426.666667 311.466667H597.333333c81.066667 0 149.333333-68.266667 149.333334-149.333333s-68.266667-149.333333-149.333334-149.333334H277.333333v298.666667z m362.666667-640H277.333333v298.666667H640c81.066667 0 149.333333-68.266667 149.333333-149.333334s-68.266667-149.333333-149.333333-149.333333z"  horiz-adv-x="1024" />

    
    <glyph glyph-name="bell" unicode="&#59194;" d="M908.8 187.733333s-119.466667 85.333333-119.466667 366.933334c0 153.6-123.733333 277.333333-277.333333 277.333333S234.666667 708.266667 234.666667 554.666667c0-281.6-119.466667-366.933333-119.466667-366.933334-8.533333-4.266667-12.8-12.8-8.533333-25.6s12.8-17.066667 21.333333-17.066666h768c8.533333 0 17.066667 4.266667 21.333333 17.066666 0 12.8 0 21.333333-8.533333 25.6z m-729.6 4.266667c42.666667 51.2 98.133333 162.133333 98.133333 362.666667C277.333333 682.666667 384 789.333333 512 789.333333S746.666667 682.666667 746.666667 554.666667c0-200.533333 55.466667-311.466667 98.133333-362.666667H179.2zM597.333333 17.066667c-8.533333 4.266667-21.333333 4.266667-29.866666-8.533334-8.533333-17.066667-25.6-25.6-42.666667-29.866666-17.066667-4.266667-29.866667 0-42.666667 8.533333-8.533333 4.266667-21.333333 12.8-21.333333 17.066667-4.266667 12.8-17.066667 17.066667-25.6 12.8-12.8-4.266667-17.066667-17.066667-12.8-25.6 8.533333-21.333333 21.333333-29.866667 38.4-42.666667 17.066667-12.8 34.133333-17.066667 55.466667-17.066667 8.533333 0 12.8 0 21.333333 4.266667 29.866667 8.533333 51.2 25.6 68.266667 51.2 4.266667 12.8 0 25.6-8.533334 29.866667z"  horiz-adv-x="1024" />

    
    <glyph glyph-name="book" unicode="&#59195;" d="M853.333333 832H277.333333c-72.533333 0-128-55.466667-128-128v-640c0-72.533333 55.466667-128 128-128H853.333333c12.8 0 21.333333 8.533333 21.333334 21.333333V810.666667c0 12.8-8.533333 21.333333-21.333334 21.333333z m-576-42.666667h554.666667v-597.333333h-554.666667c-34.133333 0-64-12.8-85.333333-34.133333V704c0 46.933333 38.4 85.333333 85.333333 85.333333z m0-810.666666c-46.933333 0-85.333333 38.4-85.333333 85.333333s38.4 85.333333 85.333333 85.333333h554.666667v-170.666666h-554.666667z"  horiz-adv-x="1024" />

    
    <glyph glyph-name="book-open" unicode="&#59196;" d="M938.666667 789.333333h-256c-76.8 0-140.8-42.666667-170.666667-106.666666-29.866667 64-93.866667 106.666667-170.666667 106.666666H85.333333c-12.8 0-21.333333-8.533333-21.333333-21.333333v-640c0-12.8 8.533333-21.333333 21.333333-21.333333h298.666667c59.733333 0 106.666667-46.933333 106.666667-106.666667 0-12.8 8.533333-21.333333 21.333333-21.333333s21.333333 8.533333 21.333333 21.333333c0 59.733333 46.933333 106.666667 106.666667 106.666667h298.666667c12.8 0 21.333333 8.533333 21.333333 21.333333V768c0 12.8-8.533333 21.333333-21.333333 21.333333z m-448-682.666666c-25.6 25.6-64 42.666667-106.666667 42.666666H106.666667v597.333334H341.333333c81.066667 0 149.333333-68.266667 149.333334-149.333334v-490.666666z m426.666666 42.666666H640c-42.666667 0-81.066667-17.066667-106.666667-42.666666V597.333333c0 81.066667 68.266667 149.333333 149.333334 149.333334h234.666666v-597.333334z"  horiz-adv-x="1024" />

    
    <glyph glyph-name="arrow-down-circle" unicode="&#59197;" d="M512 832C264.533333 832 64 631.466667 64 384S264.533333-64 512-64 960 136.533333 960 384 759.466667 832 512 832z m0-853.333333c-221.866667 0-405.333333 183.466667-405.333333 405.333333S290.133333 789.333333 512 789.333333s405.333333-183.466667 405.333333-405.333333-183.466667-405.333333-405.333333-405.333333zM665.6 401.066667l-132.266667-132.266667V554.666667c0 12.8-8.533333 21.333333-21.333333 21.333333s-21.333333-8.533333-21.333333-21.333333v-290.133334l-132.266667 132.266667c-8.533333 8.533333-21.333333 8.533333-29.866667 0s-8.533333-21.333333 0-29.866667l170.666667-170.666666s4.266667-4.266667 8.533333-4.266667h17.066667c4.266667 0 4.266667 4.266667 8.533333 4.266667l170.666667 170.666666c8.533333 8.533333 8.533333 21.333333 0 29.866667s-29.866667 8.533333-38.4 4.266667z"  horiz-adv-x="1024" />

    
    <glyph glyph-name="bookmark" unicode="&#59198;" d="M725.333333 789.333333H298.666667C238.933333 789.333333 192 742.4 192 682.666667v-682.666667c0-8.533333 4.266667-17.066667 12.8-17.066667 8.533333-4.266667 17.066667-4.266667 21.333333 0l285.866667 204.8 285.866667-204.8c4.266667-4.266667 8.533333-4.266667 12.8-4.266666 4.266667 0 8.533333 0 8.533333 4.266666 8.533333 4.266667 12.8 12.8 12.8 17.066667V682.666667c0 59.733333-46.933333 106.666667-106.666667 106.666666zM789.333333 42.666667l-264.533333 187.733333c-4.266667 4.266667-8.533333 4.266667-12.8 4.266667s-8.533333 0-12.8-4.266667L234.666667 42.666667V682.666667c0 34.133333 29.866667 64 64 64h426.666666c34.133333 0 64-29.866667 64-64v-640z"  horiz-adv-x="1024" />

    
    <glyph glyph-name="arrow-right" unicode="&#59199;" d="M832 375.466667c4.266667 4.266667 4.266667 12.8 0 17.066666 0 4.266667-4.266667 4.266667-4.266667 8.533334l-298.666666 298.666666c-8.533333 8.533333-21.333333 8.533333-29.866667 0s-8.533333-21.333333 0-29.866666l260.266667-260.266667H213.333333c-12.8 0-21.333333-8.533333-21.333333-21.333333s8.533333-21.333333 21.333333-21.333334h546.133334l-260.266667-260.266666c-8.533333-8.533333-8.533333-21.333333 0-29.866667 4.266667-4.266667 8.533333-4.266667 17.066667-4.266667s12.8 0 17.066666 4.266667l298.666667 298.666667c-4.266667-4.266667-4.266667-4.266667 0 0z"  horiz-adv-x="1024" />

    
    <glyph glyph-name="battery" unicode="&#59200;" d="M725.333333 661.333333H128C68.266667 661.333333 21.333333 614.4 21.333333 554.666667v-341.333334c0-59.733333 46.933333-106.666667 106.666667-106.666666h597.333333c59.733333 0 106.666667 46.933333 106.666667 106.666666V554.666667c0 59.733333-46.933333 106.666667-106.666667 106.666666zM789.333333 213.333333c0-34.133333-29.866667-64-64-64H128c-34.133333 0-64 29.866667-64 64V554.666667c0 34.133333 29.866667 64 64 64h597.333333c34.133333 0 64-29.866667 64-64v-341.333334zM981.333333 448c-12.8 0-21.333333-8.533333-21.333333-21.333333v-85.333334c0-12.8 8.533333-21.333333 21.333333-21.333333s21.333333 8.533333 21.333334 21.333333v85.333334c0 12.8-8.533333 21.333333-21.333334 21.333333z"  horiz-adv-x="1024" />

    
    <glyph glyph-name="box" unicode="&#59201;" d="M900.266667 678.4l-341.333334 170.666667c-29.866667 12.8-59.733333 17.066667-93.866666 4.266666l-341.333334-170.666666c-38.4-12.8-59.733333-51.2-59.733333-93.866667v-409.6c0-42.666667 21.333333-81.066667 59.733333-93.866667l341.333334-170.666666c17.066667-8.533333 29.866667-12.8 46.933333-12.8s34.133333 4.266667 46.933333 12.8l341.333334 170.666666c38.4 17.066667 59.733333 51.2 59.733333 98.133334V584.533333c0 42.666667-21.333333 81.066667-59.733333 93.866667z m-418.133334 136.533333c8.533333 4.266667 17.066667 4.266667 29.866667 4.266667 12.8 0 21.333333-4.266667 34.133333-8.533333l341.333334-170.666667c4.266667 0 4.266667-4.266667 8.533333-4.266667l-384-183.466666L132.266667 640l8.533333 8.533333 341.333333 166.4z m-341.333333-691.2c-21.333333 8.533333-34.133333 29.866667-34.133333 55.466667V588.8v12.8l384-187.733333v-465.066667c-4.266667 0-4.266667 0-8.533334 4.266667l-341.333333 170.666666z m776.533333 55.466667c0-25.6-12.8-46.933333-34.133333-59.733333l-341.333333-170.666667c-4.266667 0-4.266667 0-8.533334-4.266667v469.333334l379.733334 187.733333c0-4.266667 4.266667-12.8 4.266666-17.066667v-405.333333z"  horiz-adv-x="1024" />

    
    <glyph glyph-name="calendar" unicode="&#59202;" d="M810.666667 746.666667h-106.666667V810.666667c0 12.8-8.533333 21.333333-21.333333 21.333333s-21.333333-8.533333-21.333334-21.333333v-64h-298.666666V810.666667c0 12.8-8.533333 21.333333-21.333334 21.333333s-21.333333-8.533333-21.333333-21.333333v-64H213.333333C153.6 746.666667 106.666667 699.733333 106.666667 640v-597.333333c0-59.733333 46.933333-106.666667 106.666666-106.666667h597.333334c59.733333 0 106.666667 46.933333 106.666666 106.666667V640c0 59.733333-46.933333 106.666667-106.666666 106.666667z m-597.333334-42.666667h106.666667V640c0-12.8 8.533333-21.333333 21.333333-21.333333s21.333333 8.533333 21.333334 21.333333V704h298.666666V640c0-12.8 8.533333-21.333333 21.333334-21.333333s21.333333 8.533333 21.333333 21.333333V704H810.666667c34.133333 0 64-29.866667 64-64v-149.333333h-725.333334V640c0 34.133333 29.866667 64 64 64z m597.333334-725.333333H213.333333c-34.133333 0-64 29.866667-64 64v405.333333h725.333334V42.666667c0-34.133333-29.866667-64-64-64z"  horiz-adv-x="1024" />

    
    <glyph glyph-name="briefcase" unicode="&#59203;" d="M853.333333 618.666667h-149.333333V682.666667c0 59.733333-46.933333 106.666667-106.666667 106.666666h-170.666666C366.933333 789.333333 320 742.4 320 682.666667v-64H170.666667C110.933333 618.666667 64 571.733333 64 512v-426.666667c0-59.733333 46.933333-106.666667 106.666667-106.666666h682.666666c59.733333 0 106.666667 46.933333 106.666667 106.666666V512c0 59.733333-46.933333 106.666667-106.666667 106.666667zM362.666667 682.666667c0 34.133333 29.866667 64 64 64h170.666666c34.133333 0 64-29.866667 64-64v-64h-298.666666V682.666667z m298.666666-106.666667v-554.666667h-298.666666v554.666667h298.666666zM106.666667 85.333333V512c0 34.133333 29.866667 64 64 64h149.333333v-554.666667H170.666667c-34.133333 0-64 29.866667-64 64z m810.666666 0c0-34.133333-29.866667-64-64-64h-149.333333v554.666667H853.333333c34.133333 0 64-29.866667 64-64v-426.666667z"  horiz-adv-x="1024" />

    
    <glyph glyph-name="camera" unicode="&#59204;" d="M896 661.333333h-157.866667l-81.066666 119.466667c-4.266667 4.266667-8.533333 8.533333-17.066667 8.533333H384c-8.533333 0-12.8-4.266667-17.066667-8.533333L285.866667 661.333333H128C68.266667 661.333333 21.333333 614.4 21.333333 554.666667v-469.333334c0-59.733333 46.933333-106.666667 106.666667-106.666666h768c59.733333 0 106.666667 46.933333 106.666667 106.666666V554.666667c0 59.733333-46.933333 106.666667-106.666667 106.666666zM960 85.333333c0-34.133333-29.866667-64-64-64H128c-34.133333 0-64 29.866667-64 64V554.666667c0 34.133333 29.866667 64 64 64h170.666667c8.533333 0 12.8 4.266667 17.066666 8.533333l81.066667 119.466667h234.666667l81.066666-119.466667c4.266667-4.266667 8.533333-8.533333 17.066667-8.533333h170.666667c34.133333 0 64-29.866667 64-64v-469.333334zM512 533.333333c-106.666667 0-192-85.333333-192-192s85.333333-192 192-192 192 85.333333 192 192-85.333333 192-192 192z m0-341.333333c-81.066667 0-149.333333 68.266667-149.333333 149.333333s68.266667 149.333333 149.333333 149.333334 149.333333-68.266667 149.333333-149.333334-68.266667-149.333333-149.333333-149.333333z"  horiz-adv-x="1024" />

    
    <glyph glyph-name="camera-off" unicode="&#59205;" d="M913.066667 17.066667l-640 640-213.333334 213.333333C51.2 878.933333 38.4 878.933333 29.866667 870.4s-8.533333-21.333333 0-29.866667l174.933333-174.933333H128C68.266667 661.333333 21.333333 614.4 21.333333 554.666667v-469.333334c0-59.733333 46.933333-106.666667 106.666667-106.666666h759.466667l81.066666-81.066667c4.266667-4.266667 8.533333-4.266667 17.066667-4.266667s12.8 0 17.066667 4.266667c8.533333 8.533333 8.533333 21.333333 0 29.866667l-89.6 89.6zM409.6 452.266667l213.333333-213.333334c-21.333333-25.6-51.2-42.666667-81.066666-46.933333-38.4-8.533333-81.066667 0-115.2 25.6-34.133333 21.333333-55.466667 55.466667-64 93.866667-8.533333 38.4 4.266667 76.8 25.6 110.933333 8.533333 12.8 17.066667 25.6 21.333333 29.866667zM128 21.333333c-34.133333 0-64 29.866667-64 64V554.666667c0 34.133333 29.866667 64 64 64h119.466667l132.266666-132.266667c-8.533333-8.533333-17.066667-21.333333-29.866666-34.133333-29.866667-42.666667-42.666667-93.866667-34.133334-145.066667 12.8-51.2 42.666667-93.866667 85.333334-123.733333 34.133333-21.333333 72.533333-34.133333 110.933333-34.133334 12.8 0 25.6 0 38.4 4.266667 42.666667 8.533333 76.8 29.866667 102.4 59.733333l192-192H128zM896 661.333333h-157.866667l-81.066666 119.466667c-4.266667 4.266667-8.533333 8.533333-17.066667 8.533333H384c-12.8 0-21.333333-8.533333-21.333333-21.333333s8.533333-21.333333 21.333333-21.333333h243.2l81.066667-119.466667c4.266667-4.266667 8.533333-8.533333 17.066666-8.533333h170.666667c34.133333 0 64-29.866667 64-64v-396.8c0-12.8 8.533333-21.333333 21.333333-21.333334s21.333333 8.533333 21.333334 21.333334V554.666667c0 59.733333-46.933333 106.666667-106.666667 106.666666z"  horiz-adv-x="1024" />

    
    <glyph glyph-name="check-circle" unicode="&#59206;" d="M938.666667 443.733333c-12.8 0-21.333333-8.533333-21.333334-21.333333v-38.4c0-221.866667-183.466667-405.333333-405.333333-405.333333S106.666667 162.133333 106.666667 384 290.133333 789.333333 512 789.333333c59.733333 0 115.2-12.8 166.4-38.4 12.8-4.266667 21.333333 0 29.866667 8.533334 4.266667 12.8 0 21.333333-8.533334 29.866666-59.733333 25.6-119.466667 38.4-183.466666 38.4C264.533333 832 64 631.466667 64 384c0-247.466667 200.533333-448 448-448S960 136.533333 960 384v38.4c0 12.8-8.533333 21.333333-21.333333 21.333333zM401.066667 443.733333c-8.533333 8.533333-21.333333 8.533333-29.866667 0s-8.533333-21.333333 0-29.866666l128-128c4.266667-4.266667 8.533333-4.266667 17.066667-4.266667s12.8 0 17.066666 4.266667l426.666667 426.666666c8.533333 8.533333 8.533333 21.333333 0 29.866667s-21.333333 8.533333-29.866667 0L512 328.533333l-110.933333 115.2z"  horiz-adv-x="1024" />

    
    <glyph glyph-name="cast" unicode="&#59207;" d="M89.6 230.4c-12.8 4.266667-21.333333-4.266667-25.6-17.066667-4.266667-12.8 4.266667-21.333333 17.066667-25.6 76.8-17.066667 132.266667-72.533333 149.333333-149.333333 0-8.533333 12.8-17.066667 21.333333-17.066667H256c12.8 4.266667 17.066667 12.8 17.066667 25.6-21.333333 93.866667-89.6 162.133333-183.466667 183.466667zM853.333333 746.666667H170.666667C110.933333 746.666667 64 699.733333 64 640v-85.333333c0-12.8 8.533333-21.333333 21.333333-21.333334s21.333333 8.533333 21.333334 21.333334V640c0 34.133333 29.866667 64 64 64h682.666666c34.133333 0 64-29.866667 64-64v-512c0-34.133333-29.866667-64-64-64h-256c-12.8 0-21.333333-8.533333-21.333333-21.333333s8.533333-21.333333 21.333333-21.333334h256c59.733333 0 106.666667 46.933333 106.666667 106.666667V640c0 59.733333-46.933333 106.666667-106.666667 106.666667zM89.6 401.066667c-12.8 0-21.333333-8.533333-25.6-17.066667 0-12.8 8.533333-21.333333 17.066667-25.6 170.666667-21.333333 302.933333-153.6 320-315.733333 0-12.8 8.533333-21.333333 21.333333-21.333334s21.333333 12.8 17.066667 21.333334c-12.8 187.733333-162.133333 337.066667-349.866667 358.4zM98.133333 59.733333c-4.266667 4.266667-17.066667 8.533333-21.333333 4.266667-4.266667 0-4.266667-4.266667-8.533333-4.266667s-4.266667-4.266667-4.266667-8.533333v-8.533333c0-4.266667 0-12.8 4.266667-12.8 4.266667-4.266667 8.533333-8.533333 17.066666-8.533334 4.266667 0 12.8 0 12.8 8.533334 4.266667 4.266667 8.533333 8.533333 8.533334 12.8v8.533333c-4.266667 0-4.266667 4.266667-8.533334 8.533333z"  horiz-adv-x="1024" />

    
    <glyph glyph-name="check" unicode="&#59208;" d="M870.4 657.066667c-8.533333 8.533333-21.333333 8.533333-29.866667 0L384 200.533333l-196.266667 196.266667c-8.533333 8.533333-21.333333 8.533333-29.866666 0s-8.533333-21.333333 0-29.866667l213.333333-213.333333c4.266667-4.266667 8.533333-4.266667 17.066667-4.266667s12.8 0 17.066666 4.266667l469.333334 469.333333c0 8.533333 0 25.6-4.266667 34.133334z"  horiz-adv-x="1024" />

    
    <glyph glyph-name="check-square" unicode="&#59209;" d="M955.733333 742.4c-8.533333 8.533333-21.333333 8.533333-29.866666 0L512 328.533333l-110.933333 110.933334c-8.533333 8.533333-21.333333 8.533333-29.866667 0s-8.533333-21.333333 0-29.866667l128-128c4.266667-4.266667 8.533333-4.266667 17.066667-4.266667s12.8 0 17.066666 4.266667l426.666667 426.666667c0 8.533333 0 25.6-4.266667 34.133333zM896 405.333333c-12.8 0-21.333333-8.533333-21.333333-21.333333v-298.666667c0-34.133333-29.866667-64-64-64H213.333333c-34.133333 0-64 29.866667-64 64V682.666667c0 34.133333 29.866667 64 64 64h469.333334c12.8 0 21.333333 8.533333 21.333333 21.333333s-8.533333 21.333333-21.333333 21.333333H213.333333C153.6 789.333333 106.666667 742.4 106.666667 682.666667v-597.333334c0-59.733333 46.933333-106.666667 106.666666-106.666666h597.333334c59.733333 0 106.666667 46.933333 106.666666 106.666666v298.666667c0 12.8-8.533333 21.333333-21.333333 21.333333z"  horiz-adv-x="1024" />

    
    <glyph glyph-name="chevron-down" unicode="&#59210;" d="M785.066667 529.066667c-8.533333 8.533333-21.333333 8.533333-29.866667 0L512 285.866667 273.066667 529.066667c-8.533333 8.533333-21.333333 8.533333-29.866667 0s-8.533333-21.333333 0-29.866667l256-256c4.266667-4.266667 8.533333-4.266667 17.066667-4.266667s12.8 0 17.066666 4.266667l256 256c0 4.266667 0 21.333333-4.266666 29.866667z"  horiz-adv-x="1024" />

    
    <glyph glyph-name="chevron-left" unicode="&#59211;" d="M413.866667 384l238.933333 238.933333c8.533333 8.533333 8.533333 21.333333 0 29.866667s-21.333333 8.533333-29.866667 0l-256-256c-8.533333-8.533333-8.533333-21.333333 0-29.866667l256-256c4.266667-4.266667 8.533333-4.266667 17.066667-4.266666s12.8 0 17.066667 4.266666c8.533333 8.533333 8.533333 21.333333 0 29.866667L413.866667 384z"  horiz-adv-x="1024" />

    
    <glyph glyph-name="chevrons-down" unicode="&#59212;" d="M708.266667 358.4L512 157.866667l-196.266667 196.266666c-8.533333 8.533333-21.333333 8.533333-29.866666 0s-8.533333-21.333333 0-29.866666l213.333333-213.333334c4.266667-4.266667 8.533333-4.266667 17.066667-4.266666s12.8 0 17.066666 4.266666l213.333334 213.333334c8.533333 8.533333 8.533333 21.333333 0 29.866666s-29.866667 8.533333-38.4 4.266667zM494.933333 409.6c4.266667-4.266667 8.533333-4.266667 17.066667-4.266667s12.8 0 17.066667 4.266667l213.333333 213.333333c8.533333 8.533333 8.533333 21.333333 0 29.866667s-21.333333 8.533333-29.866667 0L512 456.533333 315.733333 657.066667c-8.533333 8.533333-21.333333 8.533333-29.866666 0s-8.533333-21.333333 0-29.866667l209.066666-217.6z"  horiz-adv-x="1024" />

    
    <glyph glyph-name="chevron-up" unicode="&#59213;" d="M785.066667 273.066667l-256 256c-8.533333 8.533333-21.333333 8.533333-29.866667 0l-256-256c-8.533333-8.533333-8.533333-21.333333 0-29.866667s21.333333-8.533333 29.866667 0L512 482.133333l238.933333-238.933333c4.266667-4.266667 8.533333-4.266667 17.066667-4.266667s12.8 0 17.066667 4.266667c4.266667 4.266667 4.266667 21.333333 0 29.866667z"  horiz-adv-x="1024" />

    
    <glyph glyph-name="chevron-right" unicode="&#59214;" d="M657.066667 401.066667l-256 256c-8.533333 8.533333-21.333333 8.533333-29.866667 0s-8.533333-21.333333 0-29.866667l238.933333-238.933333-238.933333-238.933334c-8.533333-8.533333-8.533333-21.333333 0-29.866666 4.266667-4.266667 8.533333-4.266667 17.066667-4.266667s12.8 0 17.066666 4.266667l256 256s0 17.066667-4.266666 25.6z"  horiz-adv-x="1024" />

    
    <glyph glyph-name="chevrons-up" unicode="&#59215;" d="M315.733333 409.6L512 610.133333l196.266667-196.266666c4.266667-4.266667 8.533333-4.266667 17.066666-4.266667s12.8 0 17.066667 4.266667c8.533333 8.533333 8.533333 21.333333 0 29.866666l-213.333333 213.333334c-8.533333 8.533333-21.333333 8.533333-29.866667 0l-213.333333-213.333334c-8.533333-8.533333-8.533333-21.333333 0-29.866666s21.333333-8.533333 29.866666-4.266667zM529.066667 358.4c-8.533333 8.533333-21.333333 8.533333-29.866667 0l-213.333333-213.333333c-8.533333-8.533333-8.533333-21.333333 0-29.866667s21.333333-8.533333 29.866666 0l196.266667 196.266667 196.266667-196.266667c4.266667-4.266667 8.533333-4.266667 17.066666-4.266667s12.8 0 17.066667 4.266667c8.533333 8.533333 8.533333 21.333333 0 29.866667l-213.333333 213.333333z"  horiz-adv-x="1024" />

    
    <glyph glyph-name="chevrons-right" unicode="&#59216;" d="M785.066667 401.066667l-213.333334 213.333333c-8.533333 8.533333-21.333333 8.533333-29.866666 0s-8.533333-21.333333 0-29.866667l196.266666-196.266666-196.266666-196.266667c-8.533333-8.533333-8.533333-21.333333 0-29.866667 4.266667-4.266667 8.533333-4.266667 17.066666-4.266666s12.8 0 17.066667 4.266666l213.333333 213.333334s0 17.066667-4.266666 25.6zM273.066667 614.4c-8.533333 8.533333-21.333333 8.533333-29.866667 0s-8.533333-21.333333 0-29.866667l196.266667-196.266666-196.266667-196.266667c-8.533333-8.533333-8.533333-21.333333 0-29.866667 4.266667-4.266667 8.533333-4.266667 17.066667-4.266666s12.8 0 17.066666 4.266666l213.333334 213.333334c8.533333 8.533333 8.533333 21.333333 0 29.866666L273.066667 614.4z"  horiz-adv-x="1024" />

    
    <glyph glyph-name="chevrons-left" unicode="&#59217;" d="M486.4 614.4c-8.533333 8.533333-21.333333 8.533333-29.866667 0l-213.333333-213.333333c-8.533333-8.533333-8.533333-21.333333 0-29.866667l213.333333-213.333333c4.266667-4.266667 8.533333-4.266667 17.066667-4.266667s12.8 0 17.066667 4.266667c8.533333 8.533333 8.533333 21.333333 0 29.866666L285.866667 384l196.266666 196.266667c8.533333 8.533333 8.533333 25.6 4.266667 34.133333zM584.533333 384l196.266667 196.266667c8.533333 8.533333 8.533333 21.333333 0 29.866666s-21.333333 8.533333-29.866667 0l-213.333333-213.333333c-8.533333-8.533333-8.533333-21.333333 0-29.866667l213.333333-213.333333c4.266667-4.266667 8.533333-4.266667 17.066667-4.266667s12.8 0 17.066667 4.266667c8.533333 8.533333 8.533333 21.333333 0 29.866667L584.533333 384z"  horiz-adv-x="1024" />

    
    <glyph glyph-name="chrome" unicode="&#59218;" d="M925.866667 554.666667c0 4.266667-4.266667 12.8-8.533334 12.8C849.066667 725.333333 691.2 832 512 832 264.533333 832 64 631.466667 64 384S264.533333-64 512-64 960 136.533333 960 384c0 59.733333-12.8 119.466667-34.133333 170.666667zM512 789.333333c153.6 0 290.133333-85.333333 358.4-213.333333H512c-98.133333 0-174.933333-72.533333-187.733333-162.133333L196.266667 640C268.8 729.6 384 789.333333 512 789.333333z m149.333333-405.333333c0-81.066667-68.266667-149.333333-149.333333-149.333333S362.666667 302.933333 362.666667 384s68.266667 149.333333 149.333333 149.333333 149.333333-68.266667 149.333333-149.333333z m-554.666666 0c0 76.8 21.333333 149.333333 59.733333 213.333333L341.333333 290.133333c0-4.266667 4.266667-4.266667 4.266667-4.266666 34.133333-55.466667 93.866667-89.6 162.133333-89.6 25.6 0 46.933333 4.266667 72.533334 12.8l-128-221.866667C256 12.8 106.666667 179.2 106.666667 384z m405.333333-405.333333h-12.8l179.2 307.2c0 4.266667 4.266667 4.266667 4.266667 8.533333 12.8 25.6 21.333333 55.466667 21.333333 85.333333 0 59.733333-29.866667 115.2-72.533333 149.333334h256c17.066667-46.933333 29.866667-98.133333 29.866666-149.333334 0-217.6-183.466667-401.066667-405.333333-401.066666z"  horiz-adv-x="1024" />

    
    <glyph glyph-name="clipboard" unicode="&#59219;" d="M768 746.666667h-64V768c0 38.4-25.6 64-64 64H384c-38.4 0-64-25.6-64-64v-21.333333H256C196.266667 746.666667 149.333333 699.733333 149.333333 640v-597.333333c0-59.733333 46.933333-106.666667 106.666667-106.666667h512c59.733333 0 106.666667 46.933333 106.666667 106.666667V640c0 59.733333-46.933333 106.666667-106.666667 106.666667zM362.666667 768c0 12.8 8.533333 21.333333 21.333333 21.333333h256c12.8 0 21.333333-8.533333 21.333333-21.333333v-85.333333c0-12.8-8.533333-21.333333-21.333333-21.333334H384c-12.8 0-21.333333 8.533333-21.333333 21.333334V768z m469.333333-725.333333c0-34.133333-29.866667-64-64-64H256c-34.133333 0-64 29.866667-64 64V640c0 34.133333 29.866667 64 64 64h64V682.666667c0-38.4 25.6-64 64-64h256c38.4 0 64 25.6 64 64v21.333333H768c34.133333 0 64-29.866667 64-64v-597.333333z"  horiz-adv-x="1024" />

    
    <glyph glyph-name="clock" unicode="&#59220;" d="M512 832C264.533333 832 64 631.466667 64 384S264.533333-64 512-64 960 136.533333 960 384 759.466667 832 512 832z m0-853.333333c-221.866667 0-405.333333 183.466667-405.333333 405.333333S290.133333 789.333333 512 789.333333s405.333333-183.466667 405.333333-405.333333-183.466667-405.333333-405.333333-405.333333zM691.2 315.733333l-157.866667 81.066667V640c0 12.8-8.533333 21.333333-21.333333 21.333333s-21.333333-8.533333-21.333333-21.333333v-256c0-8.533333 4.266667-17.066667 12.8-17.066667l170.666666-85.333333c4.266667 0 4.266667-4.266667 8.533334-4.266667 8.533333 0 17.066667 4.266667 17.066666 12.8 8.533333 8.533333 4.266667 21.333333-8.533333 25.6z"  horiz-adv-x="1024" />

    
    <glyph glyph-name="cloud-lightning" unicode="&#59221;" d="M998.4 430.933333c-25.6 110.933333-119.466667 187.733333-230.4 187.733334h-38.4c-25.6 89.6-85.333333 162.133333-166.4 209.066666C482.133333 874.666667 384 887.466667 294.4 861.866667 98.133333 806.4-17.066667 614.4 29.866667 422.4c21.333333-93.866667 85.333333-179.2 174.933333-226.133333 8.533333-4.266667 21.333333 0 29.866667 8.533333 4.266667 8.533333 0 21.333333-8.533334 29.866667-81.066667 42.666667-136.533333 115.2-157.866666 200.533333-42.666667 170.666667 59.733333 341.333333 230.4 388.266667 85.333333 21.333333 170.666667 8.533333 243.2-34.133334 72.533333-42.666667 128-115.2 149.333333-196.266666 4.266667-8.533333 12.8-17.066667 21.333333-17.066667H768c89.6 0 170.666667-64 187.733333-153.6 12.8-51.2 0-102.4-25.6-145.066667s-72.533333-72.533333-123.733333-81.066666c-12.8 0-21.333333-12.8-17.066667-25.6 0-8.533333 12.8-17.066667 21.333334-17.066667h4.266666c59.733333 12.8 115.2 46.933333 149.333334 98.133333 34.133333 55.466667 46.933333 119.466667 34.133333 179.2zM640 192H422.4l149.333333 221.866667c8.533333 8.533333 4.266667 21.333333-4.266666 29.866666-8.533333 8.533333-21.333333 4.266667-29.866667-4.266666l-170.666667-256c-4.266667-8.533333-4.266667-17.066667 0-21.333334 4.266667-8.533333 12.8-12.8 17.066667-12.8h217.6l-149.333333-221.866666c-8.533333-8.533333-4.266667-21.333333 4.266666-29.866667 4.266667-4.266667 8.533333-4.266667 12.8-4.266667 8.533333 0 12.8 4.266667 17.066667 8.533334l170.666667 256c4.266667 8.533333 4.266667 17.066667 0 21.333333 0 8.533333-8.533333 12.8-17.066667 12.8z"  horiz-adv-x="1024" />

    
    <glyph glyph-name="cloud-drizzle" unicode="&#59222;" d="M341.333333 106.666667c-12.8 0-21.333333-8.533333-21.333333-21.333334v-85.333333c0-12.8 8.533333-21.333333 21.333333-21.333333s21.333333 8.533333 21.333334 21.333333v85.333333c0 12.8-8.533333 21.333333-21.333334 21.333334zM341.333333 362.666667c-12.8 0-21.333333-8.533333-21.333333-21.333334v-85.333333c0-12.8 8.533333-21.333333 21.333333-21.333333s21.333333 8.533333 21.333334 21.333333v85.333333c0 12.8-8.533333 21.333333-21.333334 21.333334zM682.666667 106.666667c-12.8 0-21.333333-8.533333-21.333334-21.333334v-85.333333c0-12.8 8.533333-21.333333 21.333334-21.333333s21.333333 8.533333 21.333333 21.333333v85.333333c0 12.8-8.533333 21.333333-21.333333 21.333334zM682.666667 362.666667c-12.8 0-21.333333-8.533333-21.333334-21.333334v-85.333333c0-12.8 8.533333-21.333333 21.333334-21.333333s21.333333 8.533333 21.333333 21.333333v85.333333c0 12.8-8.533333 21.333333-21.333333 21.333334zM512 21.333333c-12.8 0-21.333333-8.533333-21.333333-21.333333v-85.333333c0-12.8 8.533333-21.333333 21.333333-21.333334s21.333333 8.533333 21.333333 21.333334v85.333333c0 12.8-8.533333 21.333333-21.333333 21.333333zM512 277.333333c-12.8 0-21.333333-8.533333-21.333333-21.333333v-85.333333c0-12.8 8.533333-21.333333 21.333333-21.333334s21.333333 8.533333 21.333333 21.333334v85.333333c0 12.8-8.533333 21.333333-21.333333 21.333333zM985.6 477.866667c-38.4 85.333333-123.733333 140.8-217.6 140.8h-38.4c-25.6 89.6-85.333333 162.133333-166.4 209.066666C482.133333 874.666667 384 887.466667 294.4 861.866667 98.133333 806.4-17.066667 614.4 29.866667 422.4c17.066667-76.8 64-145.066667 128-192 8.533333-8.533333 21.333333-4.266667 29.866666 4.266667 8.533333 8.533333 4.266667 21.333333-4.266666 29.866666-55.466667 38.4-93.866667 98.133333-110.933334 166.4-42.666667 170.666667 59.733333 341.333333 230.4 388.266667 81.066667 25.6 166.4 12.8 238.933334-29.866667 72.533333-42.666667 128-115.2 149.333333-196.266666 4.266667-8.533333 12.8-17.066667 21.333333-17.066667H768c76.8 0 145.066667-46.933333 174.933333-115.2 21.333333-46.933333 21.333333-98.133333 0-145.066667-17.066667-46.933333-55.466667-85.333333-102.4-106.666666-12.8-4.266667-17.066667-17.066667-12.8-29.866667 4.266667-8.533333 12.8-12.8 21.333334-12.8h8.533333c55.466667 25.6 102.4 72.533333 123.733333 128 29.866667 64 25.6 128 4.266667 183.466667z"  horiz-adv-x="1024" />

    
    <glyph glyph-name="cloud-off" unicode="&#59223;" d="M405.333333 704c136.533333-12.8 251.733333-106.666667 285.866667-238.933333 4.266667-8.533333 12.8-17.066667 21.333333-17.066667H768c29.866667 0 55.466667-4.266667 76.8-17.066667 46.933333-21.333333 85.333333-59.733333 106.666667-106.666666 17.066667-46.933333 17.066667-98.133333 0-145.066667-4.266667-12.8 0-21.333333 12.8-29.866667h8.533333c8.533333 0 17.066667 4.266667 21.333333 12.8 25.6 55.466667 25.6 119.466667 4.266667 179.2-25.6 59.733333-68.266667 106.666667-128 132.266667-25.6 12.8-55.466667 21.333333-93.866667 21.333333H725.333333c-42.666667 140.8-166.4 243.2-315.733333 256-12.8-4.266667-25.6-12.8-25.6-25.6s8.533333-21.333333 21.333333-21.333333zM59.733333 870.4C51.2 878.933333 38.4 878.933333 29.866667 870.4s-8.533333-21.333333 0-29.866667l149.333333-149.333333C106.666667 640 55.466667 571.733333 29.866667 486.4c-25.6-93.866667-17.066667-192 34.133333-277.333333C128 93.866667 247.466667 21.333333 384 21.333333h384c25.6 0 46.933333 4.266667 68.266667 8.533334l132.266666-132.266667c4.266667-4.266667 8.533333-4.266667 17.066667-4.266667s12.8 0 17.066667 4.266667c8.533333 8.533333 8.533333 21.333333 0 29.866667L59.733333 870.4zM768 64H384c-123.733333 0-230.4 59.733333-285.866667 162.133333-42.666667 76.8-51.2 162.133333-29.866666 247.466667 21.333333 76.8 72.533333 140.8 140.8 183.466667l588.8-588.8c-8.533333-4.266667-17.066667-4.266667-29.866667-4.266667z"  horiz-adv-x="1024" />

    
    <glyph glyph-name="cloud-rain" unicode="&#59224;" d="M682.666667 362.666667c-12.8 0-21.333333-8.533333-21.333334-21.333334v-341.333333c0-12.8 8.533333-21.333333 21.333334-21.333333s21.333333 8.533333 21.333333 21.333333v341.333333c0 12.8-8.533333 21.333333-21.333333 21.333334zM341.333333 362.666667c-12.8 0-21.333333-8.533333-21.333333-21.333334v-341.333333c0-12.8 8.533333-21.333333 21.333333-21.333333s21.333333 8.533333 21.333334 21.333333v341.333333c0 12.8-8.533333 21.333333-21.333334 21.333334zM512 277.333333c-12.8 0-21.333333-8.533333-21.333333-21.333333v-341.333333c0-12.8 8.533333-21.333333 21.333333-21.333334s21.333333 8.533333 21.333333 21.333334v341.333333c0 12.8-8.533333 21.333333-21.333333 21.333333zM985.6 477.866667c-38.4 85.333333-123.733333 140.8-217.6 140.8h-38.4c-25.6 89.6-85.333333 162.133333-166.4 209.066666C482.133333 874.666667 384 887.466667 294.4 861.866667 98.133333 806.4-17.066667 614.4 29.866667 422.4c17.066667-76.8 64-145.066667 128-192 8.533333-8.533333 21.333333-4.266667 29.866666 4.266667 8.533333 8.533333 4.266667 21.333333-4.266666 29.866666-55.466667 38.4-93.866667 98.133333-110.933334 166.4-42.666667 170.666667 59.733333 341.333333 230.4 388.266667 81.066667 25.6 166.4 12.8 238.933334-29.866667 72.533333-42.666667 128-115.2 149.333333-196.266666 4.266667-8.533333 12.8-17.066667 21.333333-17.066667H768c76.8 0 145.066667-46.933333 174.933333-115.2 21.333333-46.933333 21.333333-98.133333 0-145.066667-17.066667-46.933333-55.466667-85.333333-102.4-106.666666-12.8-4.266667-17.066667-17.066667-12.8-29.866667 4.266667-8.533333 12.8-12.8 21.333334-12.8h8.533333c55.466667 25.6 102.4 72.533333 123.733333 128 29.866667 64 25.6 128 4.266667 183.466667z"  horiz-adv-x="1024" />

    
    <glyph glyph-name="codepen" unicode="&#59225;" d="M960 234.666667v298.666666 8.533334 4.266666l-4.266667 4.266667-426.666666 277.333333c-4.266667 0-8.533333 4.266667-8.533334 4.266667s-8.533333 0-8.533333-4.266667L85.333333 550.4l-4.266666-4.266667v-324.266666l4.266666-4.266667 426.666667-277.333333c4.266667 0 8.533333-4.266667 8.533333-4.266667s8.533333 0 8.533334 4.266667l426.666666 277.333333 4.266667 4.266667s4.266667 0 4.266667 4.266666v4.266667c-4.266667 0-4.266667 0-4.266667 4.266667z m-853.333333 256L260.266667 384l-153.6-106.666667v213.333334z m405.333333-230.4L337.066667 384 512 507.733333l174.933333-123.733333-174.933333-123.733333z m21.333333 285.866666V772.266667l366.933334-238.933334-174.933334-123.733333-192 136.533333z m-42.666666 0L298.666667 409.6 123.733333 533.333333l366.933334 238.933334v-226.133334zM298.666667 358.4l192-132.266667V0l-366.933334 238.933333L298.666667 358.4z m234.666666-136.533333l192 132.266666 174.933334-123.733333-366.933334-238.933333v230.4z m230.4 162.133333l153.6 106.666667v-217.6L763.733333 384z"  horiz-adv-x="1024" />

    
    <glyph glyph-name="cloud" unicode="&#59226;" d="M768 490.666667h-38.4c-25.6 89.6-85.333333 162.133333-166.4 209.066666-81.066667 46.933333-179.2 59.733333-268.8 34.133334C98.133333 678.4-17.066667 486.4 29.866667 294.4c42.666667-162.133333 187.733333-273.066667 354.133333-273.066667h384c132.266667 0 234.666667 102.4 234.666667 234.666667S900.266667 490.666667 768 490.666667z m0-426.666667H384c-149.333333 0-277.333333 98.133333-311.466667 238.933333-42.666667 170.666667 59.733333 341.333333 230.4 388.266667 29.866667 8.533333 55.466667 12.8 85.333334 12.8 55.466667 0 106.666667-12.8 153.6-42.666667 72.533333-42.666667 128-115.2 149.333333-196.266666 4.266667-8.533333 12.8-17.066667 21.333333-17.066667H768c106.666667 0 192-85.333333 192-192s-85.333333-192-192-192z"  horiz-adv-x="1024" />

    
    <glyph glyph-name="code" unicode="&#59227;" d="M955.733333 401.066667l-256 256c-8.533333 8.533333-21.333333 8.533333-29.866666 0s-8.533333-21.333333 0-29.866667l238.933333-238.933333-238.933333-238.933334c-8.533333-8.533333-8.533333-21.333333 0-29.866666 4.266667-4.266667 8.533333-4.266667 17.066666-4.266667s12.8 0 17.066667 4.266667l256 256s0 17.066667-4.266667 25.6zM358.4 657.066667c-8.533333 8.533333-21.333333 8.533333-29.866667 0l-256-256c-8.533333-8.533333-8.533333-21.333333 0-29.866667l256-256c4.266667-4.266667 8.533333-4.266667 17.066667-4.266667s12.8 0 17.066667 4.266667c8.533333 8.533333 8.533333 21.333333 0 29.866667L115.2 384l238.933333 238.933333c8.533333 8.533333 8.533333 25.6 4.266667 34.133334z"  horiz-adv-x="1024" />

    
    <glyph glyph-name="cloud-snow" unicode="&#59228;" d="M985.6 435.2c-38.4 85.333333-123.733333 140.8-217.6 140.8h-38.4c-25.6 89.6-85.333333 162.133333-166.4 209.066667-81.066667 46.933333-179.2 59.733333-268.8 34.133333C98.133333 763.733333-17.066667 571.733333 29.866667 379.733333c17.066667-76.8 64-145.066667 128-192 8.533333-8.533333 21.333333-4.266667 29.866666 4.266667 8.533333 8.533333 4.266667 21.333333-4.266666 29.866667-55.466667 38.4-93.866667 98.133333-110.933334 166.4-42.666667 170.666667 59.733333 341.333333 230.4 388.266666 81.066667 25.6 166.4 12.8 238.933334-29.866666 72.533333-42.666667 128-115.2 149.333333-196.266667 4.266667-8.533333 12.8-17.066667 21.333333-17.066667H768c76.8 0 145.066667-46.933333 174.933333-115.2 21.333333-46.933333 21.333333-98.133333 0-145.066666-17.066667-46.933333-55.466667-85.333333-102.4-106.666667-12.8-4.266667-17.066667-17.066667-12.8-29.866667 4.266667-8.533333 12.8-12.8 21.333334-12.8h8.533333c55.466667 25.6 102.4 72.533333 123.733333 128 29.866667 64 25.6 128 4.266667 183.466667zM349.866667 234.666667h-17.066667c-4.266667 0-4.266667-4.266667-8.533333-4.266667-4.266667-4.266667-4.266667-8.533333-4.266667-17.066667v-8.533333c0-4.266667 4.266667-4.266667 4.266667-8.533333 0 0 4.266667-4.266667 8.533333-4.266667H341.333333c4.266667 0 12.8 0 12.8 8.533333 4.266667 4.266667 8.533333 8.533333 8.533334 12.8 0 4.266667-4.266667 12.8-8.533334 17.066667 0 0-4.266667 0-4.266666 4.266667zM332.8 64c-4.266667 0-4.266667-4.266667-8.533333-4.266667s-4.266667-4.266667-4.266667-8.533333v-8.533333c0-4.266667 0-12.8 4.266667-12.8 4.266667-4.266667 8.533333-8.533333 17.066666-8.533334h8.533334c4.266667 0 4.266667 4.266667 8.533333 4.266667 4.266667 4.266667 8.533333 8.533333 8.533333 12.8 0 4.266667-4.266667 12.8-8.533333 17.066667-8.533333 8.533333-17.066667 8.533333-25.6 8.533333zM524.8 145.066667c-8.533333 8.533333-21.333333 8.533333-29.866667 0-4.266667-4.266667-4.266667-8.533333-4.266666-17.066667v-8.533333c0-4.266667 4.266667-4.266667 4.266666-8.533334 0 0 4.266667-4.266667 8.533334-4.266666h8.533333c4.266667 0 12.8 0 12.8 8.533333 4.266667 0 4.266667 4.266667 4.266667 8.533333v8.533334 8.533333c0-4.266667 0 0-4.266667 4.266667zM524.8-25.6s-4.266667 4.266667-8.533333 4.266667c-8.533333 4.266667-17.066667 0-21.333334-4.266667-4.266667 0-4.266667-4.266667-4.266666-8.533333v-8.533334c0-4.266667 0-12.8 4.266666-12.8 4.266667-4.266667 8.533333-8.533333 17.066667-8.533333 4.266667 0 12.8 0 12.8 8.533333 4.266667 4.266667 8.533333 8.533333 8.533333 12.8v8.533334c-4.266667 0-4.266667 4.266667-8.533333 8.533333zM695.466667 230.4c-4.266667 4.266667-17.066667 8.533333-21.333334 4.266667-4.266667 0-4.266667-4.266667-8.533333-4.266667 0 0-4.266667-4.266667-4.266667-8.533333v-8.533334c0-4.266667 0-12.8 4.266667-12.8 0 0 4.266667-4.266667 8.533333-4.266666h17.066667c4.266667 0 4.266667 4.266667 8.533333 4.266666 4.266667 4.266667 8.533333 8.533333 8.533334 12.8v8.533334c-8.533333 0-8.533333 4.266667-12.8 8.533333zM695.466667 59.733333c-8.533333 8.533333-21.333333 8.533333-29.866667 0-4.266667-4.266667-4.266667-8.533333-4.266667-17.066666s0-12.8 4.266667-12.8c0 0 4.266667-4.266667 8.533333-4.266667h8.533334c4.266667 0 12.8 0 12.8 8.533333 4.266667 4.266667 8.533333 8.533333 8.533333 12.8v8.533334c-4.266667-4.266667-4.266667 0-8.533333 4.266666z"  horiz-adv-x="1024" />

    
    <glyph glyph-name="coffee" unicode="&#59229;" d="M810.666667 576H85.333333c-12.8 0-21.333333-8.533333-21.333333-21.333333v-384c0-106.666667 85.333333-192 192-192h341.333333c106.666667 0 192 85.333333 192 192v21.333333h21.333334c106.666667 0 192 85.333333 192 192s-85.333333 192-192 192zM746.666667 170.666667c0-81.066667-68.266667-149.333333-149.333334-149.333334H256c-81.066667 0-149.333333 68.266667-149.333333 149.333334V533.333333h640V170.666667z m64 64h-21.333334v298.666666h21.333334c81.066667 0 149.333333-68.266667 149.333333-149.333333s-68.266667-149.333333-149.333333-149.333333zM256 704c12.8 0 21.333333 8.533333 21.333333 21.333333V853.333333c0 12.8-8.533333 21.333333-21.333333 21.333334s-21.333333-8.533333-21.333333-21.333334v-128c0-12.8 8.533333-21.333333 21.333333-21.333333zM426.666667 704c12.8 0 21.333333 8.533333 21.333333 21.333333V853.333333c0 12.8-8.533333 21.333333-21.333333 21.333334s-21.333333-8.533333-21.333334-21.333334v-128c0-12.8 8.533333-21.333333 21.333334-21.333333zM597.333333 704c12.8 0 21.333333 8.533333 21.333334 21.333333V853.333333c0 12.8-8.533333 21.333333-21.333334 21.333334s-21.333333-8.533333-21.333333-21.333334v-128c0-12.8 8.533333-21.333333 21.333333-21.333333z"  horiz-adv-x="1024" />

    
    <glyph glyph-name="compass" unicode="&#59230;" d="M512 832C264.533333 832 64 631.466667 64 384S264.533333-64 512-64 960 136.533333 960 384 759.466667 832 512 832z m0-853.333333c-221.866667 0-405.333333 183.466667-405.333333 405.333333S290.133333 789.333333 512 789.333333s405.333333-183.466667 405.333333-405.333333-183.466667-405.333333-405.333333-405.333333zM682.666667 584.533333L413.866667 494.933333c-4.266667 0-12.8-8.533333-12.8-12.8L311.466667 213.333333c-4.266667-8.533333 0-17.066667 4.266666-21.333333 4.266667-4.266667 8.533333-4.266667 17.066667-4.266667H341.333333l268.8 89.6c4.266667 0 12.8 8.533333 12.8 12.8L712.533333 554.666667c4.266667 8.533333 0 17.066667-4.266666 21.333333s-17.066667 8.533333-25.6 8.533333z m-98.133334-273.066666l-217.6-72.533334 72.533334 217.6 217.6 72.533334-72.533334-217.6z"  horiz-adv-x="1024" />

    
    <glyph glyph-name="command" unicode="&#59231;" d="M768 277.333333h-106.666667v213.333334H768c85.333333 0 149.333333 64 149.333333 149.333333S853.333333 789.333333 768 789.333333 618.666667 725.333333 618.666667 640v-106.666667h-213.333334V640C405.333333 725.333333 341.333333 789.333333 256 789.333333S106.666667 725.333333 106.666667 640 170.666667 490.666667 256 490.666667h106.666667v-213.333334H256c-85.333333 0-149.333333-64-149.333333-149.333333S170.666667-21.333333 256-21.333333 405.333333 42.666667 405.333333 128v106.666667h213.333334V128c0-85.333333 64-149.333333 149.333333-149.333333s149.333333 64 149.333333 149.333333-64 149.333333-149.333333 149.333333zM661.333333 640c0 59.733333 46.933333 106.666667 106.666667 106.666667s106.666667-46.933333 106.666667-106.666667-46.933333-106.666667-106.666667-106.666667h-106.666667V640z m-298.666666-512c0-59.733333-46.933333-106.666667-106.666667-106.666667S149.333333 68.266667 149.333333 128s46.933333 106.666667 106.666667 106.666667h106.666667V128z m0 405.333333H256C196.266667 533.333333 149.333333 580.266667 149.333333 640S196.266667 746.666667 256 746.666667 362.666667 699.733333 362.666667 640v-106.666667z m256-256h-213.333334v213.333334h213.333334v-213.333334z m149.333333-256c-59.733333 0-106.666667 46.933333-106.666667 106.666667v106.666667H768c59.733333 0 106.666667-46.933333 106.666667-106.666667s-46.933333-106.666667-106.666667-106.666667z"  horiz-adv-x="1024" />

    
    <glyph glyph-name="copy" unicode="&#59232;" d="M853.333333 533.333333h-384c-59.733333 0-106.666667-46.933333-106.666666-106.666666v-384c0-59.733333 46.933333-106.666667 106.666666-106.666667h384c59.733333 0 106.666667 46.933333 106.666667 106.666667v384c0 59.733333-46.933333 106.666667-106.666667 106.666666zM917.333333 42.666667c0-34.133333-29.866667-64-64-64h-384c-34.133333 0-64 29.866667-64 64v384c0 34.133333 29.866667 64 64 64h384c34.133333 0 64-29.866667 64-64v-384zM213.333333 277.333333H170.666667c-34.133333 0-64 29.866667-64 64V725.333333c0 34.133333 29.866667 64 64 64h384c34.133333 0 64-29.866667 64-64v-42.666666c0-12.8 8.533333-21.333333 21.333333-21.333334s21.333333 8.533333 21.333333 21.333334V725.333333c0 59.733333-46.933333 106.666667-106.666666 106.666667H170.666667C110.933333 832 64 785.066667 64 725.333333v-384c0-59.733333 46.933333-106.666667 106.666667-106.666666h42.666666c12.8 0 21.333333 8.533333 21.333334 21.333333s-8.533333 21.333333-21.333334 21.333333z"  horiz-adv-x="1024" />

    
    <glyph glyph-name="circle" unicode="&#59233;" d="M512 832C264.533333 832 64 631.466667 64 384S264.533333-64 512-64 960 136.533333 960 384 759.466667 832 512 832z m0-853.333333c-221.866667 0-405.333333 183.466667-405.333333 405.333333S290.133333 789.333333 512 789.333333s405.333333-183.466667 405.333333-405.333333-183.466667-405.333333-405.333333-405.333333z"  horiz-adv-x="1024" />

    
    <glyph glyph-name="corner-down-left" unicode="&#59234;" d="M853.333333 746.666667c-12.8 0-21.333333-8.533333-21.333333-21.333334v-298.666666c0-81.066667-68.266667-149.333333-149.333333-149.333334H221.866667l174.933333 174.933334c8.533333 8.533333 8.533333 21.333333 0 29.866666s-21.333333 8.533333-29.866667 0l-213.333333-213.333333s-4.266667-4.266667-4.266667-8.533333c-4.266667-4.266667-4.266667-12.8 0-17.066667 0-4.266667 4.266667-4.266667 4.266667-8.533333l213.333333-213.333334c4.266667-4.266667 8.533333-4.266667 17.066667-4.266666s12.8 0 17.066667 4.266666c8.533333 8.533333 8.533333 21.333333 0 29.866667l-174.933334 174.933333H682.666667c106.666667 0 192 85.333333 192 192V725.333333c0 12.8-8.533333 21.333333-21.333334 21.333334z"  horiz-adv-x="1024" />

    
    <glyph glyph-name="corner-down-right" unicode="&#59235;" d="M874.666667 247.466667c4.266667 4.266667 4.266667 12.8 0 17.066666 0 4.266667-4.266667 4.266667-4.266667 8.533334l-213.333333 213.333333c-8.533333 8.533333-21.333333 8.533333-29.866667 0s-8.533333-21.333333 0-29.866667l174.933333-174.933333H341.333333c-81.066667 0-149.333333 68.266667-149.333333 149.333333V725.333333c0 12.8-8.533333 21.333333-21.333333 21.333334s-21.333333-8.533333-21.333334-21.333334v-298.666666c0-106.666667 85.333333-192 192-192h460.8l-174.933333-174.933334c-8.533333-8.533333-8.533333-21.333333 0-29.866666 4.266667-4.266667 8.533333-4.266667 17.066667-4.266667s12.8 0 17.066666 4.266667l213.333334 213.333333c-4.266667 0-4.266667 0 0 4.266667z"  horiz-adv-x="1024" />

    
    <glyph glyph-name="corner-left-down" unicode="&#59236;" d="M853.333333 746.666667h-298.666666c-106.666667 0-192-85.333333-192-192v-460.8l-174.933334 174.933333c-8.533333 8.533333-21.333333 8.533333-29.866666 0s-8.533333-21.333333 0-29.866667l213.333333-213.333333s4.266667-4.266667 8.533333-4.266667h17.066667c4.266667 0 4.266667 4.266667 8.533333 4.266667l213.333334 213.333333c8.533333 8.533333 8.533333 21.333333 0 29.866667s-21.333333 8.533333-29.866667 0l-174.933333-174.933333V554.666667c0 81.066667 68.266667 149.333333 149.333333 149.333333h298.666667c12.8 0 21.333333 8.533333 21.333333 21.333333s-17.066667 21.333333-29.866667 21.333334z"  horiz-adv-x="1024" />

    
    <glyph glyph-name="corner-right-down" unicode="&#59237;" d="M870.4 273.066667c-8.533333 8.533333-21.333333 8.533333-29.866667 0l-174.933333-174.933334V554.666667c0 106.666667-85.333333 192-192 192H170.666667c-12.8 0-21.333333-8.533333-21.333334-21.333334s8.533333-21.333333 21.333334-21.333333h298.666666c81.066667 0 149.333333-68.266667 149.333334-149.333333v-460.8l-174.933334 174.933333c-8.533333 8.533333-21.333333 8.533333-29.866666 0s-8.533333-21.333333 0-29.866667l213.333333-213.333333s4.266667-4.266667 8.533333-4.266667h17.066667c4.266667 0 4.266667 4.266667 8.533333 4.266667l213.333334 213.333333c0 8.533333 0 25.6-4.266667 34.133334z"  horiz-adv-x="1024" />

    
    <glyph glyph-name="corner-left-up" unicode="&#59238;" d="M853.333333 64h-298.666666c-81.066667 0-149.333333 68.266667-149.333334 149.333333V674.133333l174.933334-174.933333c4.266667-4.266667 8.533333-4.266667 17.066666-4.266667s12.8 0 17.066667 4.266667c8.533333 8.533333 8.533333 21.333333 0 29.866667l-213.333333 213.333333s-4.266667 4.266667-8.533334 4.266667c-4.266667 4.266667-12.8 4.266667-17.066666 0-4.266667 0-4.266667-4.266667-8.533334-4.266667l-213.333333-213.333333c-8.533333-8.533333-8.533333-21.333333 0-29.866667s21.333333-8.533333 29.866667 0l174.933333 174.933333V213.333333c0-106.666667 85.333333-192 192-192h298.666667c12.8 0 21.333333 8.533333 21.333333 21.333334s-4.266667 21.333333-17.066667 21.333333z"  horiz-adv-x="1024" />

    
    <glyph glyph-name="corner-right-up" unicode="&#59239;" d="M870.4 529.066667l-213.333333 213.333333s-4.266667 4.266667-8.533334 4.266667c-4.266667 4.266667-12.8 4.266667-17.066666 0-4.266667 0-4.266667-4.266667-8.533334-4.266667l-213.333333-213.333333c-8.533333-8.533333-8.533333-21.333333 0-29.866667s21.333333-8.533333 29.866667 0l174.933333 174.933333V213.333333c0-81.066667-68.266667-149.333333-149.333333-149.333333H170.666667c-12.8 0-21.333333-8.533333-21.333334-21.333333s8.533333-21.333333 21.333334-21.333334h298.666666c106.666667 0 192 85.333333 192 192V674.133333l174.933334-174.933333c4.266667-4.266667 8.533333-4.266667 17.066666-4.266667s12.8 0 17.066667 4.266667c4.266667 4.266667 4.266667 21.333333 0 29.866667z"  horiz-adv-x="1024" />

    
    <glyph glyph-name="corner-up-left" unicode="&#59240;" d="M682.666667 533.333333H221.866667l174.933333 174.933334c8.533333 8.533333 8.533333 21.333333 0 29.866666s-21.333333 8.533333-29.866667 0l-213.333333-213.333333s-4.266667-4.266667-4.266667-8.533333c-4.266667-4.266667-4.266667-12.8 0-17.066667 0-4.266667 4.266667-4.266667 4.266667-8.533333l213.333333-213.333334c4.266667-4.266667 8.533333-4.266667 17.066667-4.266666s12.8 0 17.066667 4.266666c8.533333 8.533333 8.533333 21.333333 0 29.866667L221.866667 490.666667H682.666667c81.066667 0 149.333333-68.266667 149.333333-149.333334v-298.666666c0-12.8 8.533333-21.333333 21.333333-21.333334s21.333333 8.533333 21.333334 21.333334v298.666666c0 106.666667-85.333333 192-192 192z"  horiz-adv-x="1024" />

    
    <glyph glyph-name="corner-up-right" unicode="&#59241;" d="M874.666667 503.466667c4.266667 4.266667 4.266667 12.8 0 17.066666 0 4.266667-4.266667 4.266667-4.266667 8.533334l-213.333333 213.333333c-8.533333 8.533333-21.333333 8.533333-29.866667 0s-8.533333-21.333333 0-29.866667l174.933333-174.933333H341.333333c-106.666667 0-192-85.333333-192-192v-298.666667c0-12.8 8.533333-21.333333 21.333334-21.333333s21.333333 8.533333 21.333333 21.333333v298.666667C192 426.666667 260.266667 494.933333 341.333333 494.933333h460.8l-174.933333-174.933333c-8.533333-8.533333-8.533333-21.333333 0-29.866667 4.266667-4.266667 8.533333-4.266667 17.066667-4.266666s12.8 0 17.066666 4.266666l213.333334 213.333334c-4.266667-4.266667-4.266667-4.266667 0 0z"  horiz-adv-x="1024" />

    
    <glyph glyph-name="credit-card" unicode="&#59242;" d="M896 746.666667H128C68.266667 746.666667 21.333333 699.733333 21.333333 640v-512c0-59.733333 46.933333-106.666667 106.666667-106.666667h768c59.733333 0 106.666667 46.933333 106.666667 106.666667V640c0 59.733333-46.933333 106.666667-106.666667 106.666667z m-768-42.666667h768c34.133333 0 64-29.866667 64-64v-149.333333h-896V640c0 34.133333 29.866667 64 64 64z m768-640H128c-34.133333 0-64 29.866667-64 64v320h896V128c0-34.133333-29.866667-64-64-64z"  horiz-adv-x="1024" />

    
    <glyph glyph-name="cpu" unicode="&#59243;" d="M640 533.333333H384c-12.8 0-21.333333-8.533333-21.333333-21.333333v-256c0-12.8 8.533333-21.333333 21.333333-21.333333h256c12.8 0 21.333333 8.533333 21.333333 21.333333V512c0 12.8-8.533333 21.333333-21.333333 21.333333z m-21.333333-256h-213.333334v213.333334h213.333334v-213.333334zM981.333333 320h-106.666666v170.666667H981.333333c12.8 0 21.333333 8.533333 21.333334 21.333333s-8.533333 21.333333-21.333334 21.333333h-106.666666V640c0 59.733333-46.933333 106.666667-106.666667 106.666667h-106.666667V853.333333c0 12.8-8.533333 21.333333-21.333333 21.333334s-21.333333-8.533333-21.333333-21.333334v-106.666666h-213.333334V853.333333c0 12.8-8.533333 21.333333-21.333333 21.333334s-21.333333-8.533333-21.333333-21.333334v-106.666666H256C196.266667 746.666667 149.333333 699.733333 149.333333 640v-106.666667H42.666667c-12.8 0-21.333333-8.533333-21.333334-21.333333s8.533333-21.333333 21.333334-21.333333h106.666666v-170.666667H42.666667c-12.8 0-21.333333-8.533333-21.333334-21.333333s8.533333-21.333333 21.333334-21.333334h106.666666V128c0-59.733333 46.933333-106.666667 106.666667-106.666667h106.666667V-85.333333c0-12.8 8.533333-21.333333 21.333333-21.333334s21.333333 8.533333 21.333333 21.333334v106.666666h213.333334V-85.333333c0-12.8 8.533333-21.333333 21.333333-21.333334s21.333333 8.533333 21.333333 21.333334v106.666666H768c59.733333 0 106.666667 46.933333 106.666667 106.666667v149.333333H981.333333c12.8 0 21.333333 8.533333 21.333334 21.333334s-8.533333 21.333333-21.333334 21.333333zM832 128c0-34.133333-29.866667-64-64-64H256c-34.133333 0-64 29.866667-64 64V640c0 34.133333 29.866667 64 64 64h512c34.133333 0 64-29.866667 64-64v-512z"  horiz-adv-x="1024" />

    
    <glyph glyph-name="crop" unicode="&#59244;" d="M981.333333 149.333333h-192V554.666667c0 59.733333-46.933333 106.666667-106.666666 106.666666l-401.066667-4.266666V853.333333c0 12.8-8.533333 21.333333-21.333333 21.333334s-21.333333-8.533333-21.333334-21.333334v-196.266666H42.666667c-12.8 0-21.333333-8.533333-21.333334-21.333334s8.533333-21.333333 21.333334-21.333333h196.266666L234.666667 213.333333c0-59.733333 46.933333-106.666667 106.666666-106.666666h405.333334V-85.333333c0-12.8 8.533333-21.333333 21.333333-21.333334s21.333333 8.533333 21.333333 21.333334v192H981.333333c12.8 0 21.333333 8.533333 21.333334 21.333333s-8.533333 21.333333-21.333334 21.333333z m-640 0c-34.133333 0-64 29.866667-64 64l4.266667 401.066667 401.066667 4.266667c34.133333 0 64-29.866667 64-64v-405.333334H341.333333z"  horiz-adv-x="1024" />

    
    <glyph glyph-name="delete" unicode="&#59245;" d="M896 746.666667H341.333333c-4.266667 0-12.8-4.266667-17.066666-8.533334l-298.666667-341.333333c-8.533333-8.533333-8.533333-21.333333 0-29.866667l298.666667-341.333333c4.266667-4.266667 8.533333-8.533333 17.066666-8.533333h554.666667c59.733333 0 106.666667 46.933333 106.666667 106.666666V640c0 59.733333-46.933333 106.666667-106.666667 106.666667zM960 128c0-34.133333-29.866667-64-64-64H349.866667L72.533333 384l281.6 320H896c34.133333 0 64-29.866667 64-64v-512zM785.066667 529.066667c-8.533333 8.533333-21.333333 8.533333-29.866667 0L640 413.866667l-110.933333 110.933333c-8.533333 8.533333-21.333333 8.533333-29.866667 0s-8.533333-21.333333 0-29.866667l110.933333-110.933333-110.933333-110.933333c-8.533333-8.533333-8.533333-21.333333 0-29.866667 4.266667-4.266667 8.533333-4.266667 17.066667-4.266667s12.8 0 17.066666 4.266667l110.933334 110.933333 110.933333-110.933333c4.266667-4.266667 8.533333-4.266667 17.066667-4.266667s12.8 0 17.066666 4.266667c8.533333 8.533333 8.533333 21.333333 0 29.866667L669.866667 384l110.933333 110.933333c8.533333 8.533333 8.533333 25.6 4.266667 34.133334z"  horiz-adv-x="1024" />

    
    <glyph glyph-name="crosshair" unicode="&#59246;" d="M512 832C264.533333 832 64 631.466667 64 384S264.533333-64 512-64 960 136.533333 960 384 759.466667 832 512 832z m21.333333-853.333333V128c0 12.8-8.533333 21.333333-21.333333 21.333333s-21.333333-8.533333-21.333333-21.333333v-149.333333c-204.8 12.8-371.2 174.933333-384 384H256c12.8 0 21.333333 8.533333 21.333333 21.333333s-8.533333 21.333333-21.333333 21.333333H106.666667c12.8 204.8 174.933333 371.2 384 384V640c0-12.8 8.533333-21.333333 21.333333-21.333333s21.333333 8.533333 21.333333 21.333333V789.333333c204.8-12.8 371.2-174.933333 384-384H768c-12.8 0-21.333333-8.533333-21.333333-21.333333s8.533333-21.333333 21.333333-21.333333h149.333333c-12.8-204.8-179.2-371.2-384-384z"  horiz-adv-x="1024" />

    
    <glyph glyph-name="database" unicode="&#59247;" d="M512 832C315.733333 832 106.666667 780.8 106.666667 682.666667v-597.333334c0-98.133333 204.8-149.333333 405.333333-149.333333s405.333333 51.2 405.333333 149.333333V682.666667c0 98.133333-209.066667 149.333333-405.333333 149.333333zM874.666667 384c0-51.2-149.333333-106.666667-362.666667-106.666667S149.333333 332.8 149.333333 384V614.4C221.866667 563.2 371.2 533.333333 512 533.333333s290.133333 29.866667 362.666667 81.066667V384zM512 789.333333c226.133333 0 362.666667-64 362.666667-106.666666S738.133333 576 512 576 149.333333 640 149.333333 682.666667 285.866667 789.333333 512 789.333333z m0-810.666666c-213.333333 0-362.666667 55.466667-362.666667 106.666666v230.4c68.266667-51.2 217.6-81.066667 362.666667-81.066666s294.4 25.6 362.666667 81.066666V85.333333c0-51.2-149.333333-106.666667-362.666667-106.666666z"  horiz-adv-x="1024" />

    
    <glyph glyph-name="dollar-sign" unicode="&#59248;" d="M618.666667 405.333333h-85.333334v256H725.333333c12.8 0 21.333333 8.533333 21.333334 21.333334s-8.533333 21.333333-21.333334 21.333333h-192V853.333333c0 12.8-8.533333 21.333333-21.333333 21.333334s-21.333333-8.533333-21.333333-21.333334v-149.333333h-85.333334c-93.866667 0-170.666667-76.8-170.666666-170.666667s76.8-170.666667 170.666666-170.666666h85.333334v-256H256c-12.8 0-21.333333-8.533333-21.333333-21.333334s8.533333-21.333333 21.333333-21.333333h234.666667V-85.333333c0-12.8 8.533333-21.333333 21.333333-21.333334s21.333333 8.533333 21.333333 21.333334v149.333333h85.333334c93.866667 0 170.666667 76.8 170.666666 170.666667s-76.8 170.666667-170.666666 170.666666z m-213.333334 0c-68.266667 0-128 59.733333-128 128s59.733333 128 128 128h85.333334v-256h-85.333334z m213.333334-298.666666h-85.333334v256h85.333334c68.266667 0 128-59.733333 128-128s-59.733333-128-128-128z"  horiz-adv-x="1024" />

    
    <glyph glyph-name="disc" unicode="&#59249;" d="M512 832C264.533333 832 64 631.466667 64 384S264.533333-64 512-64 960 136.533333 960 384 759.466667 832 512 832z m0-853.333333c-221.866667 0-405.333333 183.466667-405.333333 405.333333S290.133333 789.333333 512 789.333333s405.333333-183.466667 405.333333-405.333333-183.466667-405.333333-405.333333-405.333333zM512 533.333333c-81.066667 0-149.333333-68.266667-149.333333-149.333333s68.266667-149.333333 149.333333-149.333333 149.333333 68.266667 149.333333 149.333333-68.266667 149.333333-149.333333 149.333333z m0-256c-59.733333 0-106.666667 46.933333-106.666667 106.666667s46.933333 106.666667 106.666667 106.666667 106.666667-46.933333 106.666667-106.666667-46.933333-106.666667-106.666667-106.666667z"  horiz-adv-x="1024" />

    
    <glyph glyph-name="download-cloud" unicode="&#59250;" d="M665.6 187.733333l-132.266667-132.266666V384c0 12.8-8.533333 21.333333-21.333333 21.333333s-21.333333-8.533333-21.333333-21.333333v-332.8l-132.266667 132.266667c-8.533333 8.533333-21.333333 8.533333-29.866667 0s-8.533333-21.333333 0-29.866667l170.666667-170.666667s4.266667-4.266667 8.533333-4.266666h17.066667c4.266667 0 4.266667 4.266667 8.533333 4.266666l170.666667 170.666667c8.533333 8.533333 8.533333 21.333333 0 29.866667s-29.866667 8.533333-38.4 4.266666zM960 435.2c-42.666667 59.733333-115.2 98.133333-192 98.133333h-38.4c-55.466667 183.466667-247.466667 294.4-435.2 247.466667-93.866667-25.6-174.933333-85.333333-221.866667-166.4-51.2-85.333333-64-183.466667-38.4-277.333333 12.8-59.733333 42.666667-110.933333 81.066667-149.333334 8.533333-8.533333 21.333333-8.533333 29.866667 0s8.533333 21.333333 0 29.866667c-34.133333 34.133333-59.733333 81.066667-72.533334 132.266667-21.333333 85.333333-8.533333 170.666667 34.133334 243.2 42.666667 72.533333 115.2 128 196.266666 149.333333 170.666667 42.666667 345.6-59.733333 388.266667-230.4 4.266667-8.533333 12.8-17.066667 21.333333-17.066667H768c59.733333 0 123.733333-29.866667 157.866667-81.066666 29.866667-42.666667 42.666667-93.866667 34.133333-145.066667-8.533333-51.2-38.4-93.866667-81.066667-123.733333-8.533333-8.533333-12.8-21.333333-4.266666-29.866667 4.266667-4.266667 12.8-8.533333 17.066666-8.533333 4.266667 0 8.533333 0 12.8 4.266666 51.2 34.133333 85.333333 89.6 98.133334 153.6 8.533333 55.466667-4.266667 119.466667-42.666667 170.666667z"  horiz-adv-x="1024" />

    
    <glyph glyph-name="download" unicode="&#59251;" d="M896 277.333333c-12.8 0-21.333333-8.533333-21.333333-21.333333v-170.666667c0-34.133333-29.866667-64-64-64H213.333333c-34.133333 0-64 29.866667-64 64v170.666667c0 12.8-8.533333 21.333333-21.333333 21.333333s-21.333333-8.533333-21.333333-21.333333v-170.666667c0-59.733333 46.933333-106.666667 106.666666-106.666666h597.333334c59.733333 0 106.666667 46.933333 106.666666 106.666666v170.666667c0 12.8-8.533333 21.333333-21.333333 21.333333zM494.933333 238.933333s4.266667-4.266667 8.533334-4.266666h17.066666c4.266667 0 4.266667 4.266667 8.533334 4.266666l213.333333 213.333334c8.533333 8.533333 8.533333 21.333333 0 29.866666s-21.333333 8.533333-29.866667 0l-174.933333-174.933333V768c0 12.8-8.533333 21.333333-21.333333 21.333333s-25.6-8.533333-25.6-21.333333v-460.8L315.733333 486.4c-8.533333 8.533333-21.333333 8.533333-29.866666 0s-8.533333-21.333333 0-29.866667l209.066666-217.6z"  horiz-adv-x="1024" />

    
    <glyph glyph-name="edit-" unicode="&#59252;" d="M913.066667 785.066667c-55.466667 55.466667-149.333333 55.466667-200.533334 0L132.266667 209.066667c0-4.266667-4.266667-8.533333-4.266667-12.8l-64-234.666667c0-8.533333 0-17.066667 4.266667-21.333333 4.266667-4.266667 8.533333-4.266667 17.066666-4.266667h4.266667L324.266667 0c4.266667 0 8.533333 4.266667 8.533333 4.266667L913.066667 580.266667c55.466667 55.466667 55.466667 149.333333 0 204.8z m-34.133334-170.666667L307.2 38.4l-192-51.2 51.2 192L742.4 750.933333c38.4 38.4 102.4 38.4 140.8 0 38.4-38.4 38.4-98.133333-4.266667-136.533333z"  horiz-adv-x="1024" />

    
    <glyph glyph-name="droplet" unicode="&#59253;" d="M772.266667 554.666667l-243.2 243.2c-4.266667 4.266667-8.533333 4.266667-17.066667 4.266666-4.266667 0-12.8-4.266667-17.066667-4.266666L256 554.666667c-140.8-140.8-140.8-371.2 0-512 72.533333-72.533333 162.133333-106.666667 256-106.666667s183.466667 34.133333 256 106.666667c145.066667 140.8 145.066667 366.933333 4.266667 512z m-34.133334-482.133334c-123.733333-123.733333-328.533333-123.733333-452.266666 0s-123.733333 328.533333 0 452.266667L512 750.933333l226.133333-226.133333c128-128 128-328.533333 0-452.266667z"  horiz-adv-x="1024" />

    
    <glyph glyph-name="external-link" unicode="&#59254;" d="M768 362.666667c-12.8 0-21.333333-8.533333-21.333333-21.333334v-256c0-34.133333-29.866667-64-64-64H213.333333c-34.133333 0-64 29.866667-64 64V554.666667c0 34.133333 29.866667 64 64 64h256c12.8 0 21.333333 8.533333 21.333334 21.333333s-8.533333 21.333333-21.333334 21.333333H213.333333C153.6 661.333333 106.666667 614.4 106.666667 554.666667v-469.333334c0-59.733333 46.933333-106.666667 106.666666-106.666666h469.333334c59.733333 0 106.666667 46.933333 106.666666 106.666666v256c0 12.8-8.533333 21.333333-21.333333 21.333334zM917.333333 776.533333c-4.266667 4.266667-4.266667 8.533333-12.8 12.8H640c-12.8 0-21.333333-8.533333-21.333333-21.333333s8.533333-21.333333 21.333333-21.333333h204.8L409.6 315.733333c-8.533333-8.533333-8.533333-21.333333 0-29.866666 4.266667-4.266667 8.533333-4.266667 17.066667-4.266667s12.8 0 17.066666 4.266667L874.666667 716.8V512c0-12.8 8.533333-21.333333 21.333333-21.333333s21.333333 8.533333 21.333333 21.333333V768v8.533333z"  horiz-adv-x="1024" />

    
    <glyph glyph-name="edit-1" unicode="&#59255;" d="M896 64h-384c-12.8 0-21.333333-8.533333-21.333333-21.333333s8.533333-21.333333 21.333333-21.333334h384c12.8 0 21.333333 8.533333 21.333333 21.333334s-8.533333 21.333333-21.333333 21.333333zM878.933333 682.666667c0 29.866667-12.8 59.733333-29.866666 81.066666-38.4 38.4-119.466667 38.4-157.866667 0L153.6 230.4c-4.266667-4.266667-4.266667-4.266667-4.266667-8.533333l-42.666666-170.666667c0-8.533333 0-17.066667 4.266666-21.333333 4.266667-4.266667 8.533333-4.266667 17.066667-4.266667h4.266667l170.666666 42.666667c4.266667 0 8.533333 4.266667 8.533334 4.266666L849.066667 601.6c17.066667 21.333333 29.866667 51.2 29.866666 81.066667z m-64-46.933334L285.866667 106.666667l-132.266667-34.133334 34.133333 132.266667L721.066667 729.6c25.6 25.6 72.533333 25.6 98.133333 0 12.8-12.8 21.333333-29.866667 21.333333-46.933333s-12.8-38.4-25.6-46.933334z"  horiz-adv-x="1024" />

    
    <glyph glyph-name="edit" unicode="&#59256;" d="M853.333333 362.666667c-12.8 0-21.333333-8.533333-21.333333-21.333334v-298.666666c0-34.133333-29.866667-64-64-64H170.666667c-34.133333 0-64 29.866667-64 64V640c0 34.133333 29.866667 64 64 64h298.666666c12.8 0 21.333333 8.533333 21.333334 21.333333s-8.533333 21.333333-21.333334 21.333334H170.666667C110.933333 746.666667 64 699.733333 64 640v-597.333333c0-59.733333 46.933333-106.666667 106.666667-106.666667h597.333333c59.733333 0 106.666667 46.933333 106.666667 106.666667v298.666666c0 12.8-8.533333 21.333333-21.333334 21.333334zM934.4 806.4c-38.4 38.4-119.466667 38.4-157.866667 0l-405.333333-405.333333c-4.266667-4.266667-4.266667-4.266667-4.266667-8.533334l-42.666666-170.666666c0-8.533333 0-17.066667 4.266666-21.333334 4.266667-4.266667 8.533333-4.266667 17.066667-4.266666h4.266667l170.666666 42.666666c4.266667 0 8.533333 4.266667 8.533334 4.266667l405.333333 405.333333c21.333333 21.333333 29.866667 46.933333 29.866667 81.066667s-12.8 55.466667-29.866667 76.8z m-34.133333-128l-401.066667-401.066667-132.266667-34.133333 34.133334 132.266667 401.066666 401.066666c25.6 25.6 72.533333 25.6 98.133334 0 25.6-29.866667 25.6-72.533333 0-98.133333z"  horiz-adv-x="1024" />

    
    <glyph glyph-name="facebook" unicode="&#59257;" d="M640 618.666667h128c12.8 0 21.333333 8.533333 21.333333 21.333333V810.666667c0 12.8-8.533333 21.333333-21.333333 21.333333h-128c-132.266667 0-234.666667-102.4-234.666667-234.666667v-106.666666H298.666667c-12.8 0-21.333333-8.533333-21.333334-21.333334v-170.666666c0-12.8 8.533333-21.333333 21.333334-21.333334h106.666666V-42.666667c0-12.8 8.533333-21.333333 21.333334-21.333333h170.666666c12.8 0 21.333333 8.533333 21.333334 21.333333v320H725.333333c8.533333 0 17.066667 8.533333 21.333334 17.066667l42.666666 170.666667c0 4.266667 0 12.8-4.266666 17.066666-4.266667 4.266667-8.533333 8.533333-17.066667 8.533334h-149.333333V597.333333c0 12.8 8.533333 21.333333 21.333333 21.333334z m-42.666667-170.666667h145.066667l-34.133333-128H597.333333c-12.8 0-21.333333-8.533333-21.333333-21.333333v-320h-128V298.666667c0 12.8-8.533333 21.333333-21.333333 21.333333H320v128H426.666667c12.8 0 21.333333 8.533333 21.333333 21.333333V597.333333c0 106.666667 85.333333 192 192 192h106.666667v-128H640c-38.4 0-64-25.6-64-64v-128c0-12.8 8.533333-21.333333 21.333333-21.333333z"  horiz-adv-x="1024" />

    
    <glyph glyph-name="eye" unicode="&#59258;" d="M998.4 392.533333c-8.533333 12.8-179.2 354.133333-486.4 354.133334S29.866667 409.6 25.6 392.533333c-4.266667-4.266667-4.266667-12.8 0-17.066666 8.533333-12.8 179.2-354.133333 486.4-354.133334s482.133333 337.066667 486.4 354.133334c4.266667 4.266667 4.266667 12.8 0 17.066666zM512 64c-256 0-413.866667 264.533333-443.733333 320C98.133333 439.466667 256 704 512 704s413.866667-264.533333 443.733333-320c-29.866667-55.466667-187.733333-320-443.733333-320zM512 533.333333c-81.066667 0-149.333333-68.266667-149.333333-149.333333s68.266667-149.333333 149.333333-149.333333 149.333333 68.266667 149.333333 149.333333-68.266667 149.333333-149.333333 149.333333z m0-256c-59.733333 0-106.666667 46.933333-106.666667 106.666667s46.933333 106.666667 106.666667 106.666667 106.666667-46.933333 106.666667-106.666667-46.933333-106.666667-106.666667-106.666667z"  horiz-adv-x="1024" />

    
    <glyph glyph-name="eye-off" unicode="&#59259;" d="M426.666667 695.466667c29.866667 4.266667 59.733333 8.533333 85.333333 8.533333 256 0 413.866667-264.533333 443.733333-320-25.6-51.2-55.466667-89.6-85.333333-123.733333-8.533333-8.533333-8.533333-21.333333 0-29.866667 4.266667-4.266667 8.533333-4.266667 12.8-4.266667 4.266667 0 12.8 4.266667 17.066667 8.533334 34.133333 38.4 64 85.333333 98.133333 140.8 4.266667 4.266667 4.266667 12.8 0 21.333333-8.533333 12.8-179.2 354.133333-486.4 354.133333-29.866667 0-64-4.266667-93.866667-8.533333-8.533333-4.266667-17.066667-17.066667-17.066666-29.866667 0-8.533333 12.8-17.066667 25.6-17.066666zM439.466667 490.666667L59.733333 870.4C51.2 878.933333 38.4 878.933333 29.866667 870.4s-8.533333-21.333333 0-29.866667L230.4 640c-85.333333-68.266667-157.866667-153.6-204.8-243.2-4.266667-4.266667-4.266667-12.8 0-21.333333 8.533333-12.8 179.2-354.133333 490.666667-354.133334 89.6 4.266667 179.2 34.133333 247.466666 81.066667l204.8-204.8c4.266667-4.266667 8.533333-4.266667 17.066667-4.266667s12.8 0 17.066667 4.266667c8.533333 8.533333 8.533333 21.333333 0 29.866667L439.466667 490.666667z m-17.066667-46.933334l145.066667-145.066666c-17.066667-12.8-38.4-21.333333-59.733334-21.333334-29.866667 0-55.466667 8.533333-72.533333 29.866667-38.4 38.4-42.666667 93.866667-12.8 136.533333z m89.6-379.733333c-256 0-413.866667 264.533333-443.733333 320 42.666667 81.066667 110.933333 157.866667 192 221.866667l132.266666-132.266667c-46.933333-59.733333-42.666667-140.8 12.8-196.266667 25.6-25.6 64-42.666667 102.4-42.666666h4.266667c34.133333 0 64 12.8 89.6 34.133333l128-128c-64-46.933333-140.8-72.533333-217.6-76.8z"  horiz-adv-x="1024" />

    
    <glyph glyph-name="fast-forward" unicode="&#59260;" d="M951.466667 401.066667l-384 298.666666c-4.266667 4.266667-17.066667 4.266667-21.333334 4.266667-8.533333-4.266667-12.8-12.8-12.8-17.066667v-597.333333c0-8.533333 4.266667-17.066667 12.8-17.066667 4.266667 0 4.266667-4.266667 8.533334-4.266666s8.533333 0 12.8 4.266666l384 298.666667c4.266667 4.266667 8.533333 8.533333 8.533333 17.066667s-4.266667 8.533333-8.533333 12.8zM576 128V640l328.533333-256-328.533333-256zM98.133333 699.733333c-4.266667 4.266667-12.8 4.266667-21.333333 0-8.533333 0-12.8-8.533333-12.8-17.066666v-597.333334c0-8.533333 4.266667-17.066667 12.8-17.066666 4.266667 0 4.266667-4.266667 8.533333-4.266667s8.533333 0 12.8 4.266667l384 298.666666c4.266667 4.266667 8.533333 8.533333 8.533334 17.066667s-4.266667 12.8-8.533334 17.066667l-384 298.666666zM106.666667 128V640l328.533333-256-328.533333-256z"  horiz-adv-x="1024" />

    
    <glyph glyph-name="feather" unicode="&#59261;" d="M878.933333 750.933333c-51.2 51.2-119.466667 81.066667-192 81.066667H682.666667c-72.533333 0-145.066667-29.866667-196.266667-81.066667l-285.866667-290.133333c-4.266667-4.266667-4.266667-8.533333-4.266666-17.066667v-354.133333l-123.733334-123.733333c-8.533333-8.533333-8.533333-21.333333 0-29.866667 4.266667-4.266667 8.533333-4.266667 17.066667-4.266667s12.8 0 17.066667 4.266667l123.733333 123.733333h354.133333c4.266667 0 12.8 4.266667 17.066667 4.266667l162.133333 166.4 12.8 12.8 110.933334 110.933333c93.866667 110.933333 93.866667 290.133333-8.533334 396.8z m-311.466666-644.266666H264.533333l128 128h298.666667l-123.733333-128z m277.333333 285.866666l-110.933333-115.2h-298.666667l260.266667 260.266667c8.533333 8.533333 8.533333 21.333333 0 29.866667s-21.333333 8.533333-29.866667 0l-298.666667-298.666667-132.266666-132.266667v302.933334L512 721.066667c46.933333 42.666667 106.666667 68.266667 166.4 68.266666 64 0 119.466667-25.6 162.133333-68.266666 93.866667-89.6 93.866667-238.933333 4.266667-328.533334z"  horiz-adv-x="1024" />

    
    <glyph glyph-name="figma" unicode="&#59262;" d="M742.4 512c55.466667 29.866667 89.6 85.333333 89.6 149.333333 0 93.866667-76.8 170.666667-170.666667 170.666667h-298.666666c-93.866667 0-170.666667-76.8-170.666667-170.666667 0-64 38.4-119.466667 89.6-149.333333-55.466667-29.866667-89.6-85.333333-89.6-149.333333s38.4-119.466667 89.6-149.333334c-55.466667-29.866667-89.6-85.333333-89.6-149.333333 0-93.866667 76.8-170.666667 170.666667-170.666667s170.666667 76.8 170.666666 170.666667v187.733333c29.866667-38.4 76.8-59.733333 128-59.733333 93.866667 0 170.666667 76.8 170.666667 170.666667 0 64-38.4 119.466667-89.6 149.333333z m46.933333 149.333333c0-68.266667-59.733333-128-128-128h-128v256h128c68.266667 0 128-59.733333 128-128z m-256-170.666666h17.066667l-17.066667-17.066667v17.066667z m-298.666666 170.666666c0 68.266667 59.733333 128 128 128h128v-256h-128c-68.266667 0-128 59.733333-128 128z m256-597.333333c0-68.266667-59.733333-128-128-128s-128 59.733333-128 128 59.733333 128 128 128h128v-128z m0 170.666667h-128c-68.266667 0-128 59.733333-128 128s59.733333 128 128 128h128v-256z m170.666666 0c-68.266667 0-128 59.733333-128 128s59.733333 128 128 128 128-59.733333 128-128-59.733333-128-128-128z"  horiz-adv-x="1024" />

    
    <glyph glyph-name="file-text" unicode="&#59263;" d="M874.666667 563.2c0 4.266667-4.266667 4.266667-4.266667 8.533333l-256 256s-4.266667 4.266667-8.533333 4.266667H256C196.266667 832 149.333333 785.066667 149.333333 725.333333v-682.666666c0-59.733333 46.933333-106.666667 106.666667-106.666667h512c59.733333 0 106.666667 46.933333 106.666667 106.666667V554.666667v8.533333z m-256 196.266667l183.466666-183.466667h-183.466666V759.466667zM768-21.333333H256c-34.133333 0-64 29.866667-64 64V725.333333c0 34.133333 29.866667 64 64 64h320V554.666667c0-12.8 8.533333-21.333333 21.333333-21.333334h234.666667V42.666667c0-34.133333-29.866667-64-64-64zM682.666667 362.666667H341.333333c-12.8 0-21.333333-8.533333-21.333333-21.333334s8.533333-21.333333 21.333333-21.333333h341.333334c12.8 0 21.333333 8.533333 21.333333 21.333333s-8.533333 21.333333-21.333333 21.333334zM682.666667 192H341.333333c-12.8 0-21.333333-8.533333-21.333333-21.333333s8.533333-21.333333 21.333333-21.333334h341.333334c12.8 0 21.333333 8.533333 21.333333 21.333334s-8.533333 21.333333-21.333333 21.333333zM341.333333 490.666667h85.333334c12.8 0 21.333333 8.533333 21.333333 21.333333s-8.533333 21.333333-21.333333 21.333333H341.333333c-12.8 0-21.333333-8.533333-21.333333-21.333333s8.533333-21.333333 21.333333-21.333333z"  horiz-adv-x="1024" />

    
    </font>
</defs>
</svg>
